<?xml version="1.0" encoding="UTF-8"?>
<svg version="1.1" xmlns="http://www.w3.org/2000/svg" width="420" height="494">
<path d="M0 0 C0 0.66 0 1.32 0 2 C0.71647705 2.26917236 1.4329541 2.53834473 2.17114258 2.81567383 C5.02280793 4.00954874 7.5908623 5.39455543 10.26171875 6.94921875 C11.28475098 7.54226807 12.3077832 8.13531738 13.36181641 8.74633789 C14.45929199 9.38692139 15.55676758 10.02750488 16.6875 10.6875 C17.84794246 11.36159474 19.00859074 12.03533525 20.16943359 12.70874023 C22.58134125 14.10820931 24.99235586 15.50919971 27.40283203 16.91113281 C31.89434823 19.52158409 36.39675268 22.11306149 40.89892578 24.70507812 C51.39225954 30.7466464 61.85999398 36.83060368 72.31298828 42.94165039 C79.53512204 47.158637 86.788286 51.31839043 94.05664062 55.45507812 C100.83598893 59.31946062 107.57759338 63.24626201 114.3125 67.1875 C121.16108191 71.1936449 128.01859034 75.17884317 134.9375 79.0625 C135.57413574 79.41989258 136.21077148 79.77728516 136.86669922 80.14550781 C139.54693639 81.64483062 142.23509067 83.12692395 144.9375 84.5859375 C146.175 85.25496094 146.175 85.25496094 147.4375 85.9375 C148.11683594 86.29714844 148.79617188 86.65679687 149.49609375 87.02734375 C151 88 151 88 152 90 C153.65563617 90.69360729 155.32496826 91.35463894 157 92 C159.02207944 93.08367485 161.02594605 94.20167552 163.015625 95.34375 C163.58478134 95.66934906 164.15393768 95.99494812 164.74034119 96.33041382 C166.57888594 97.38351515 168.41458881 98.44144812 170.25 99.5 C171.51205876 100.22553954 172.77418471 100.95096223 174.03637695 101.67626953 C177.13081634 103.45599277 180.22244713 105.24053516 183.31329346 107.02648926 C184.85986476 107.91911862 186.40812119 108.80882667 187.95654297 109.69824219 C190.37022827 111.08477975 192.7798078 112.47808929 195.1875 113.875 C195.88069336 114.27267578 196.57388672 114.67035156 197.28808594 115.08007812 C201.88427519 117.76855039 201.88427519 117.76855039 203 120 C203.09330814 121.34780785 203.12554448 122.70011366 203.12584114 124.05114746 C203.12975276 125.33019329 203.12975276 125.33019329 203.13374341 126.63507843 C203.13039732 128.04838062 203.13039732 128.04838062 203.12698364 129.49023438 C203.12854363 130.48691887 203.13010362 131.48360336 203.13171089 132.51049042 C203.1357199 135.8715917 203.13253161 139.23264833 203.12939453 142.59375 C203.13074862 144.99471056 203.13252859 147.39567091 203.13470459 149.79663086 C203.13880245 155.65381261 203.13818694 161.51098263 203.13529195 167.36816406 C203.13303693 172.12687282 203.13272583 176.88557798 203.13381577 181.64428711 C203.133969 182.32062683 203.13412223 182.99696654 203.13428011 183.6938014 C203.13459982 185.06761487 203.13492403 186.44142834 203.1352527 187.81524181 C203.13810675 200.70859326 203.13482164 213.60193761 203.12945233 226.4952879 C203.12498436 237.56717465 203.12576032 248.63905093 203.13037109 259.7109375 C203.13571818 272.55700096 203.13783206 285.4030582 203.13475883 298.24912262 C203.13444027 299.61798604 203.1341259 300.98684947 203.13381577 302.35571289 C203.13366149 303.0292844 203.13350721 303.7028559 203.13334826 304.39683867 C203.13248351 309.15184904 203.13394509 313.90685547 203.13629532 318.66186523 C203.1393868 325.05738887 203.13719736 331.45289732 203.13140106 337.84841919 C203.13007375 340.20191413 203.1304671 342.55541074 203.13266373 344.90890503 C203.13537633 348.10921483 203.1319927 351.30946 203.12698364 354.50976562 C203.12921436 355.45196709 203.13144509 356.39416855 203.13374341 357.36492157 C203.13113566 358.21761879 203.12852791 359.07031601 203.12584114 359.94885254 C203.12567879 360.68822304 203.12551644 361.42759354 203.12534916 362.1893692 C203 364 203 364 202 366 C200.24458134 366.96500144 198.45024829 367.85968889 196.640625 368.71875 C190.5016861 371.71388499 184.62503003 375.0210626 178.75 378.5 C176.64330322 379.73840724 174.5365302 380.97668478 172.4296875 382.21484375 C171.36459961 382.84245605 170.29951172 383.47006836 169.20214844 384.11669922 C165.09893159 386.52995133 160.98521339 388.92491026 156.87084961 391.3190918 C148.12369161 396.40942309 139.39548239 401.53044954 130.6875 406.6875 C123.25369999 411.08954286 115.79778791 415.45012746 108.31640625 419.77075195 C91.38470322 429.54972454 74.51975596 439.44127107 57.69580078 449.40429688 C54.1338817 451.51267426 50.56978092 453.61734719 47.00561523 455.72192383 C44.29491131 457.32288803 41.58488219 458.92498909 38.875 460.52734375 C35.18581925 462.70875582 31.49527406 464.88783269 27.80354309 467.06492615 C25.39538851 468.48559004 22.98818622 469.90786245 20.58114624 471.33041382 C18.87100966 472.34044341 17.1597672 473.34859984 15.44848633 474.35668945 C14.37880615 474.98921631 13.30912598 475.62174316 12.20703125 476.2734375 C11.16885254 476.88541992 10.13067383 477.49740234 9.06103516 478.12792969 C5.1140783 480.5418127 1.31566611 483.15893102 -2.45825195 485.83447266 C-5.79128771 487.36284771 -7.50626902 486.98963318 -11 486 C-13.42407227 484.87109375 -13.42407227 484.87109375 -15.81640625 483.4375 C-16.73035156 482.89673828 -17.64429688 482.35597656 -18.5859375 481.79882812 C-19.56820312 481.20521484 -20.55046875 480.61160156 -21.5625 480 C-23.71995846 478.71859235 -25.87751485 477.43734958 -28.03515625 476.15625 C-29.18127546 475.4715602 -30.32726966 474.78666112 -31.47314453 474.1015625 C-36.84904719 470.89213534 -42.25692986 467.73717715 -47.66131592 464.5760498 C-50.123695 463.13499609 -52.58445896 461.69119593 -55.04528809 460.24749756 C-63.15394462 455.49086171 -71.2755196 450.75654505 -79.39892578 446.02514648 C-85.90691461 442.23090731 -92.39495252 438.4042215 -98.875 434.5625 C-106.64671356 429.95920493 -114.44330997 425.39993075 -122.26324463 420.87911987 C-123.95846602 419.89901323 -125.65282802 418.91742064 -127.34716797 417.93579102 C-128.38760254 417.33565186 -129.42803711 416.7355127 -130.5 416.1171875 C-131.4178125 415.58722168 -132.335625 415.05725586 -133.28125 414.51123047 C-135.18960592 413.45046151 -137.12824214 412.44324227 -139.08618164 411.47705078 C-141.59849037 410.20353023 -143.8182708 408.85884086 -146.12109375 407.25 C-151.60048909 403.53531078 -157.31410434 400.27719954 -163.0625 397 C-164.78691572 396.01045823 -166.5113262 395.02090714 -168.23535156 394.03068542 C-169.99879356 393.01798081 -171.76282123 392.00630144 -173.52685547 390.99462891 C-178.9027863 387.90926159 -184.26619752 384.80250742 -189.625 381.6875 C-190.53386963 381.16220703 -191.44273926 380.63691406 -192.37915039 380.09570312 C-194.17032743 379.05354039 -195.94696363 377.98590399 -197.70666027 376.89142418 C-200.16220914 375.48115834 -202.41037 374.37900819 -204.99709797 373.29444313 C-210.24935955 370.88885409 -215.61475326 368.31043687 -217.94791389 362.73469305 C-219.55013078 355.77580878 -219.29790009 348.63566335 -219.24487305 341.53662109 C-219.28459584 339.13737649 -219.33093774 336.73823375 -219.38337708 334.3392334 C-219.49068888 328.512409 -219.52242787 322.68891373 -219.51405003 316.86117093 C-219.50796768 312.11958787 -219.52917534 307.37888117 -219.56937599 302.63747025 C-219.69360306 287.69837556 -219.72468671 272.76197715 -219.68422905 257.82245977 C-219.65597118 246.06868261 -219.76950883 234.32123243 -219.94929364 222.56895928 C-220.13289151 210.47237713 -220.21502849 198.37882044 -220.19111472 186.28081954 C-220.17960443 179.49957131 -220.20846311 172.72427402 -220.34375572 165.94422531 C-221.11342749 123.60248929 -221.11342749 123.60248929 -214.39270401 115.23877716 C-208.56440034 109.35654385 -201.28018163 106.57099699 -193.46222878 104.18785477 C-187.77241759 102.23573959 -182.88897584 99.04847161 -177.8125 95.875 C-175.83833852 94.71761861 -173.86090244 93.56578773 -171.87890625 92.421875 C-167.96670678 90.14629951 -164.05793459 87.86502413 -160.15234375 85.578125 C-148.87651043 78.97896062 -137.56293718 72.45005478 -126.21209717 65.98104858 C-117.08895613 60.78054934 -108.00133177 55.52205582 -98.9375 50.21875 C-91.64099591 45.95116604 -84.32477972 41.71884684 -77 37.5 C-72.66598038 35.00118827 -68.33271356 32.50107561 -64 30 C-62.86175781 29.34306152 -61.72351563 28.68612305 -60.55078125 28.00927734 C-57.19845775 26.07222149 -53.84884709 24.13055845 -50.5 22.1875 C-49.47261719 21.59453125 -48.44523438 21.0015625 -47.38671875 20.390625 C-46.44441406 19.84277344 -45.50210938 19.29492188 -44.53125 18.73046875 C-43.70173828 18.24989014 -42.87222656 17.76931152 -42.01757812 17.27416992 C-39.8826455 16.0295068 -39.8826455 16.0295068 -38 14 C-36.18541065 13.04676635 -34.34832372 12.13605209 -32.5 11.25 C-23.97210698 7.10118574 -23.97210698 7.10118574 -16 2 C-16 1.34 -16 0.68 -16 0 C-14.824375 -0.2165625 -14.824375 -0.2165625 -13.625 -0.4375 C-8.25957052 -1.58723489 -5.50054698 -1.42606773 0 0 Z M-1 17 C-1 87.62 -1 158.24 -1 231 C2.38418776 229.6463249 4.99940589 228.51962012 8.01953125 226.671875 C8.78168945 226.2092627 9.54384766 225.74665039 10.32910156 225.27001953 C11.14862305 224.76841309 11.96814453 224.26680664 12.8125 223.75 C20.41952352 219.13998076 28.06164139 214.59810123 35.75 210.125 C36.75248779 209.54145752 37.75497559 208.95791504 38.7878418 208.35668945 C40.83392274 207.1662809 42.88022894 205.97625942 44.92675781 204.78662109 C58.43030121 196.9363724 71.91945308 189.06313604 85.35986328 181.10522461 C93.0604622 176.54827229 100.77878906 172.02188906 108.5 167.5 C124.96869633 157.85298411 141.41552541 148.17221547 157.77075195 138.33374023 C165.814193 133.49956321 173.901673 128.74150752 182 124 C180.71854458 120.15563374 179.53115167 119.90757204 176.015625 118.0234375 C174.94997314 117.44392334 173.88432129 116.86440918 172.78637695 116.26733398 C172.21166656 115.95996307 171.63695618 115.65259216 171.04483032 115.33590698 C167.95447589 113.68140899 164.88220837 111.99392777 161.80859375 110.30859375 C161.16637375 109.95722855 160.52415375 109.60586334 159.86247253 109.24385071 C152.93470971 105.44053906 146.11891636 101.45280747 139.3125 97.4375 C138.08782497 96.71611914 136.86313421 95.99476498 135.63842773 95.2734375 C133.23623481 93.85791724 130.8347639 92.44118012 128.43359375 91.02392578 C123.23507857 87.95967018 118.02519563 84.91505481 112.8125 81.875 C111.84530029 81.31087402 110.87810059 80.74674805 109.8815918 80.16552734 C99.36811384 74.04003249 88.82582545 67.96456444 78.28222656 61.89111328 C71.7764039 58.1426677 65.27355917 54.38905819 58.77026367 50.63623047 C53.24262719 47.44671205 47.71400619 44.25892179 42.18359375 41.07421875 C10.70843519 22.94358604 10.70843519 22.94358604 3.17578125 18.234375 C1.12699795 16.83551803 1.12699795 16.83551803 -1 17 Z M-21.53125 20.53515625 C-22.94446533 21.36648071 -22.94446533 21.36648071 -24.38623047 22.21459961 C-25.41377441 22.82440674 -26.44131836 23.43421387 -27.5 24.0625 C-29.70016001 25.35738411 -31.90069338 26.65163401 -34.1015625 27.9453125 C-34.9548967 28.44788826 -34.9548967 28.44788826 -35.82546997 28.96061707 C-41.82071726 32.48989253 -47.84605868 35.96620805 -53.875 39.4375 C-55.49027588 40.36852539 -55.49027588 40.36852539 -57.13818359 41.31835938 C-61.52194545 43.84497067 -65.90650948 46.3701884 -70.29101562 48.89550781 C-87.61146708 58.87303466 -104.92060011 68.87047002 -122.13671875 79.02734375 C-122.92167725 79.49035889 -123.70663574 79.95337402 -124.51538086 80.43041992 C-125.95320045 81.2794765 -127.39027416 82.12979813 -128.82641602 82.98168945 C-133.5707947 85.78582063 -133.5707947 85.78582063 -135.98046875 86.98828125 C-139.26945814 88.63595679 -142.40059639 90.56087885 -145.5625 92.4375 C-150.45080359 95.33061053 -155.34693741 98.20745036 -160.2734375 101.03515625 C-161.13509521 101.53023682 -161.99675293 102.02531738 -162.88452148 102.53540039 C-164.56486112 103.49938217 -166.24663035 104.46087697 -167.92993164 105.41967773 C-168.69426514 105.85868408 -169.45859863 106.29769043 -170.24609375 106.75 C-170.92341553 107.13671875 -171.6007373 107.5234375 -172.29858398 107.921875 C-174.16081145 109.01493909 -174.16081145 109.01493909 -176 111 C-177.43951891 111.76564054 -178.90172877 112.48900733 -180.375 113.1875 C-186.43567732 116.14695355 -192.20969787 119.54770646 -198 123 C-194.48486444 127.05307187 -190.34853056 129.20383517 -185.6875 131.6875 C-184.04707637 132.58001112 -182.4077668 133.47457266 -180.76953125 134.37109375 C-179.95693848 134.81565918 -179.1443457 135.26022461 -178.30712891 135.71826172 C-175.11797249 137.49001529 -171.99154516 139.35418269 -168.875 141.25 C-155.78593254 149.18906314 -142.56850548 156.93789818 -129.1875 164.375 C-122.12771055 168.30208372 -115.19024101 172.42877958 -108.25 176.5625 C-95.35855299 184.24007896 -82.35476027 191.7068903 -69.30883789 199.11865234 C-60.41776968 204.17395904 -51.53795459 209.24886886 -42.6875 214.375 C-41.90060791 214.82979736 -41.11371582 215.28459473 -40.30297852 215.75317383 C-36.21382732 218.12070617 -32.13706345 220.50677703 -28.078125 222.92578125 C-27.29735596 223.39000488 -26.51658691 223.85422852 -25.7121582 224.33251953 C-24.22402424 225.21897907 -22.73808496 226.10913596 -21.25463867 227.00341797 C-17.86350741 229.22912701 -17.86350741 229.22912701 -14 230 C-13.97664901 211.55458487 -13.95900999 193.10917273 -13.94818783 174.66374588 C-13.94302956 166.09939327 -13.93599576 157.53504984 -13.92456055 148.97070312 C-13.91459942 141.50681323 -13.90814316 134.04292997 -13.90591151 126.57903361 C-13.90460684 122.62626113 -13.90153631 118.67350767 -13.89426994 114.72074127 C-13.88748722 111.00096566 -13.88538765 107.28121691 -13.88689232 103.5614357 C-13.88648565 101.54401558 -13.88110216 99.52659839 -13.87557983 97.50918579 C-13.87764183 95.70872299 -13.87764183 95.70872299 -13.87974548 93.87188721 C-13.87882369 92.82841755 -13.8779019 91.78494789 -13.87695217 90.70985794 C-13.98675478 88.29169681 -14.36448689 86.31870334 -15 84 C-15.05472744 81.90159153 -15.0488822 79.80131778 -15.00585938 77.70263672 C-14.9825354 76.4280661 -14.95921143 75.15349548 -14.93518066 73.84030151 C-14.92026077 73.16227352 -14.90534088 72.48424553 -14.88996887 71.78567123 C-14.84330379 69.65935581 -14.80329385 67.53300653 -14.76501465 65.40652466 C-14.68262263 60.89589206 -14.59184713 56.38544863 -14.5 51.875 C-14.39360596 46.64130113 -14.29062654 41.40757919 -14.19624329 36.17364883 C-14.15665714 34.0762588 -14.11085033 31.9790625 -14.06481934 29.88180542 C-14.04149536 28.61353912 -14.01817139 27.34527283 -13.99414062 26.03857422 C-13.97113892 24.91812714 -13.94813721 23.79768005 -13.92443848 22.64328003 C-13.81355018 20.02167207 -13.81355018 20.02167207 -15 18 C-17.75740755 18 -19.15804807 19.13027418 -21.53125 20.53515625 Z M186.17578125 136.08984375 C185.40290771 136.5394043 184.63003418 136.98896484 183.83374023 137.45214844 C183.00173096 137.94231445 182.16972168 138.43248047 181.3125 138.9375 C180.01711304 139.69401855 180.01711304 139.69401855 178.69555664 140.46582031 C173.16071611 143.70577688 167.65962616 146.99850231 162.17211914 150.31787109 C156.08082825 153.98514951 149.91452642 157.52016017 143.75 161.0625 C133.48947298 166.95964516 123.29402714 172.95718784 113.1237793 179.0090332 C105.30609059 183.65331101 97.4477394 188.22148016 89.5625 192.75 C81.14069796 197.58761646 72.77289837 202.50015508 64.45947266 207.52148438 C57.17234551 211.91629063 49.82311258 216.20043476 42.46630859 220.47729492 C30.26672067 227.57686191 18.13399104 234.78908772 6 242 C8.75832716 244.89680147 11.61581679 246.61250144 15.125 248.5625 C16.40423675 249.28019776 17.68285756 249.99899422 18.9609375 250.71875 C19.62834961 251.09386719 20.29576172 251.46898437 20.98339844 251.85546875 C24.26313054 253.7168954 27.50527625 255.64090948 30.75 257.5625 C37.92768758 261.80378529 45.14717072 265.96984511 52.375 270.125 C61.52321747 275.38591084 70.62085864 280.72481424 79.6875 286.125 C92.58467739 293.80033885 105.54407863 301.40857856 118.78125 308.48730469 C123.09792168 310.79702381 127.30355128 313.13083513 131.34765625 315.89453125 C136.5876846 319.47356948 142.09198654 322.55230534 147.6187439 325.66345215 C157.27494845 331.1003634 166.87760979 336.59952246 176.23022461 342.54956055 C180.96949959 345.52377356 185.85050827 347.82282987 191 350 C192.11034908 338.95261567 192.13560073 327.98021734 192.11352539 316.8894043 C192.11324282 314.88751222 192.11340262 312.88562004 192.1139679 310.88372803 C192.11425314 305.48590046 192.10840063 300.08809541 192.10139394 294.69027305 C192.09511487 289.03552603 192.09455301 283.38077841 192.09336853 277.72602844 C192.09026859 267.03437591 192.08207331 256.34273368 192.07201904 245.65108567 C192.06081627 233.47205721 192.05533698 221.29302825 192.05032361 209.11399591 C192.03988951 184.07599157 192.0223161 159.03799637 192 134 C189.46429283 134 188.3619947 134.81129814 186.17578125 136.08984375 Z M-205 136 C-205 206.62 -205 277.24 -205 350 C-201.18972299 348.4758892 -198.16604433 347.01308998 -194.7109375 344.91015625 C-193.69612305 344.29599854 -192.68130859 343.68184082 -191.63574219 343.04907227 C-190.55969727 342.39350342 -189.48365234 341.73793457 -188.375 341.0625 C-180.54089142 336.32196762 -172.69158273 331.62093404 -164.75 327.0625 C-158.27775329 323.34554803 -151.88951674 319.52393423 -145.56640625 315.55859375 C-143.40682176 314.24706527 -141.25602256 313.12801128 -139 312 C-137.67756501 311.260682 -136.36140607 310.51005789 -135.05078125 309.75 C-134.29466553 309.31204102 -133.5385498 308.87408203 -132.75952148 308.42285156 C-131.95200439 307.95331055 -131.1444873 307.48376953 -130.3125 307 C-129.46308838 306.50725586 -128.61367676 306.01451172 -127.73852539 305.50683594 C-121.77720615 302.04452926 -115.83481778 298.55096671 -109.8984375 295.04614258 C-103.39539946 291.21537257 -96.85415925 287.45182824 -90.3125 283.6875 C-77.63989487 276.3920472 -64.99572011 269.04239149 -52.48144531 261.47753906 C-46.21824525 257.69155679 -39.86126295 254.1181384 -33.4375 250.61328125 C-29.14570847 248.25279591 -25.03011446 245.7851428 -21 243 C-25.0932222 239.49267039 -29.43202325 236.90688696 -34.125 234.3125 C-34.84042969 233.90966797 -35.55585938 233.50683594 -36.29296875 233.09179688 C-39.19851178 231.47066679 -41.83147159 230.05617614 -45 229 C-46.67406076 227.67596218 -48.33981385 226.34139387 -50 225 C-53.95026549 222.48535269 -58.01296329 220.16330058 -62.0625 217.8125 C-63.15111328 217.17119141 -64.23972656 216.52988281 -65.36132812 215.86914062 C-66.40869141 215.25876953 -67.45605469 214.64839844 -68.53515625 214.01953125 C-69.487854 213.46370361 -70.44055176 212.90787598 -71.42211914 212.33520508 C-73.85603503 210.94013269 -73.85603503 210.94013269 -76.15405273 210.4987793 C-78.4963863 209.86587525 -79.34868329 208.74629089 -81 207 C-82.31990965 206.14686476 -83.67137068 205.34149963 -85.04296875 204.57421875 C-85.85773682 204.11426514 -86.67250488 203.65431152 -87.51196289 203.18041992 C-88.39489014 202.68775635 -89.27781738 202.19509277 -90.1875 201.6875 C-92.08652694 200.61562697 -93.98494 199.54266577 -95.8828125 198.46875 C-96.87958008 197.90542969 -97.87634766 197.34210938 -98.90332031 196.76171875 C-104.1472103 193.7784398 -109.35473538 190.73327192 -114.5625 187.6875 C-115.52373779 187.12571045 -116.48497559 186.5639209 -117.4753418 185.98510742 C-119.358851 184.88400635 -121.24223462 183.78269042 -123.12548828 182.68115234 C-134.03708306 176.29616053 -134.03708306 176.29616053 -145 170 C-154.95266593 164.32463669 -164.82455187 158.51682853 -174.6875 152.6875 C-175.63141602 152.1301416 -176.57533203 151.5727832 -177.54785156 150.99853516 C-182.08069757 148.32116306 -186.60988934 145.63815688 -191.12890625 142.9375 C-191.91241455 142.47126221 -192.69592285 142.00502441 -193.50317383 141.5246582 C-194.96996254 140.65172527 -196.43474388 139.77540797 -197.8972168 138.89526367 C-201.21872727 136.73450175 -201.21872727 136.73450175 -205 136 Z M-20.59765625 257.2265625 C-21.17430527 257.56561615 -21.75095428 257.9046698 -22.34507751 258.2539978 C-24.25202901 259.37573398 -26.1572278 260.50041432 -28.0625 261.625 C-30.06491017 262.80364163 -32.06777795 263.98150317 -34.07064819 265.15936279 C-35.42791573 265.95764968 -36.78503117 266.75619524 -38.14199829 267.55499268 C-44.08511072 271.05309749 -50.0405442 274.52981445 -56 278 C-62.34671406 281.69757649 -68.6894814 285.40169974 -75.0234375 289.12109375 C-87.71681136 296.5742187 -100.42789884 303.99230159 -113.18652344 311.33349609 C-121.35509044 316.0386801 -129.49549257 320.79029072 -137.625 325.5625 C-138.23317566 325.91950989 -138.84135132 326.27651978 -139.46795654 326.64434814 C-141.89141836 328.06707256 -144.31484186 329.48986221 -146.7381897 330.91278076 C-160.09358962 338.75290914 -173.47660721 346.54609561 -186.875 354.3125 C-188.07116943 355.00641846 -188.07116943 355.00641846 -189.29150391 355.71435547 C-190.01772949 356.13475098 -190.74395508 356.55514648 -191.4921875 356.98828125 C-192.12495605 357.35477783 -192.75772461 357.72127441 -193.40966797 358.09887695 C-194.58787392 358.76647876 -195.78876544 359.39438272 -197 360 C-197 360.66 -197 361.32 -197 362 C-195.95585937 362.57105469 -194.91171875 363.14210938 -193.8359375 363.73046875 C-184.36899936 368.93488084 -175.02130765 374.31065056 -165.73535156 379.83105469 C-158.56384612 384.08952178 -151.35421589 388.27782787 -144.125 392.4375 C-132.70695925 399.00907064 -121.31992434 405.63205748 -109.94580078 412.27929688 C-107.02605681 413.98477968 -104.1050684 415.68810877 -101.18359375 417.390625 C-90.28005055 423.74511024 -79.38583226 430.11524049 -68.5 436.5 C-56.52385044 443.52361246 -44.5453002 450.54301583 -32.54248047 457.52099609 C-30.91044368 458.47037951 -29.27918896 459.42110934 -27.64892578 460.37353516 C-25.64333131 461.54485273 -23.63479149 462.71090362 -21.625 463.875 C-20.56539062 464.49117187 -19.50578125 465.10734375 -18.4140625 465.7421875 C-16.15806863 467.15402517 -16.15806863 467.15402517 -14 467 C-13.97640928 455.80863621 -13.95885481 444.6172787 -13.94818783 433.42589474 C-13.94305788 428.22443171 -13.93615042 423.02298617 -13.92456055 417.8215332 C-13.87996155 397.28780248 -13.89683297 376.7752315 -14.53125 356.25 C-15.14994686 336.10684721 -14.92079795 315.99370515 -14.60510254 295.84643555 C-14.53243074 291.0975731 -14.46883434 286.3485881 -14.40429688 281.59960938 C-14.27802197 272.39960503 -14.14234237 263.19976888 -14 254 C-16.22432658 254 -18.79135581 256.16170027 -20.59765625 257.2265625 Z M0 255 C-0.33 325.29 -0.66 395.58 -1 468 C8.29859318 463.41347913 8.29859318 463.41347913 17.25390625 458.37890625 C18.29353516 457.75306641 19.33316406 457.12722656 20.40429688 456.48242188 C21.44650391 455.84884766 22.48871094 455.21527344 23.5625 454.5625 C24.60857422 453.93279297 25.65464844 453.30308594 26.73242188 452.65429688 C31.72977617 449.63603137 36.68598403 446.57030851 41.58984375 443.40234375 C46.03685238 440.55430456 50.58227698 437.98953269 55.23583984 435.49658203 C59.99223159 432.92135845 64.64694672 430.17284146 69.3125 427.4375 C70.34576416 426.83325195 71.37902832 426.22900391 72.44360352 425.60644531 C81.2717008 420.43884422 90.07999506 415.23785843 98.8828125 410.02734375 C104.90188752 406.4646899 110.93044068 402.91827414 116.9609375 399.375 C119.61405531 397.81599078 122.26500295 396.25339441 124.9140625 394.6875 C132.43267211 390.24744875 139.9777926 385.85771332 147.54956055 381.50878906 C159.14543478 374.8472405 170.64142838 368.05875058 182 361 C178.04331089 357.60855219 173.93728298 355.19426453 169.375 352.75 C161.26453448 348.3291385 153.30686434 343.66892234 145.375 338.9375 C136.82208823 333.83864591 128.24502955 328.8053886 119.52734375 323.9921875 C115.85730878 321.94711862 112.26875525 319.77126442 108.67114258 317.60205078 C104.09730253 314.85883367 99.48468359 312.18239537 94.875 309.5 C93.83875488 308.89615479 92.80250977 308.29230957 91.73486328 307.67016602 C87.45924063 305.17868809 83.18278099 302.68864885 78.90625 300.19873047 C68.35823013 294.05647985 57.8169889 287.90396895 47.3125 281.6875 C44.58017408 280.07226598 41.84772615 278.45723857 39.11523438 276.84228516 C36.85292634 275.50440299 34.59124293 274.16549478 32.33007812 272.82568359 C29.05801175 270.88738686 25.78321554 268.95376491 22.50692749 267.02261353 C21.22464335 266.26580124 19.94322942 265.50751233 18.66275024 264.74765015 C16.8620949 263.67939146 15.0583659 262.61650411 13.25390625 261.5546875 C12.21564697 260.94093262 11.1773877 260.32717773 10.10766602 259.69482422 C6.84622867 257.91613791 3.41455866 256.46338228 0 255 Z " fill="#303132" transform="translate(217,3)"/>
<path d="M0 0 C0.33 0 0.66 0 1 0 C1 80.52 1 161.04 1 244 C0.67 244 0.34 244 0 244 C0 241.69 0 239.38 0 237 C-1.3303125 236.62875 -1.3303125 236.62875 -2.6875 236.25 C-6.33496444 234.87359832 -8.31656457 233.83616049 -11 231 C-11.49012488 227.92722451 -11.6553834 225.41061132 -11.60127258 222.338974 C-11.60554471 221.45562569 -11.60981683 220.57227738 -11.61421841 219.66216093 C-11.62246781 216.69605508 -11.59493091 213.73135687 -11.56762695 210.76538086 C-11.56621688 208.64160699 -11.56700767 206.51783068 -11.56983948 204.39405823 C-11.57127686 198.62133796 -11.54183212 192.84913485 -11.50696969 187.07653499 C-11.47574853 181.04279488 -11.47277838 175.0090434 -11.46684265 168.97523499 C-11.45128737 157.54301179 -11.41023991 146.11102698 -11.3600952 134.67890888 C-11.30429703 121.67755216 -11.27673214 108.67618439 -11.25161803 95.67473781 C-11.2029738 70.79037471 -11.12568959 45.90618669 -11.02331048 21.02198833 C-11.0110431 18.01463385 -11 15.00738334 -11 12 C-9.1015625 10.60546875 -9.1015625 10.60546875 -6.625 9.1875 C-3.23569586 7.06452927 -2.16659194 6.35983859 -0.4375 2.625 C-0.293125 1.75875 -0.14875 0.8925 0 0 Z " fill="#208AE5" transform="translate(419,123)"/>
<path d="M0 0 C0.33 0 0.66 0 1 0 C1.02505615 0.87922119 1.0501123 1.75844238 1.07592773 2.66430664 C1.17338013 6.05481024 1.2723883 9.44526207 1.37231445 12.83569336 C1.41456557 14.27903574 1.45626658 15.72239438 1.49731445 17.16577148 C1.69626629 24.14873525 1.89831576 31.13013567 2.24621582 38.10754395 C2.93982178 52.12137299 3.13339089 66.09196784 3.09765625 80.12109375 C3.09578412 82.33024564 3.09436399 84.53939796 3.09336853 86.74855042 C3.08960582 92.47754118 3.07983137 98.20650536 3.06866455 103.93548584 C3.05831367 109.81571086 3.05384204 115.69594031 3.04882812 121.57617188 C3.03820145 133.05079274 3.02120324 144.52539413 3 156 C2.34 156 1.68 156 1 156 C1 159.96 1 163.92 1 168 C0.67 168 0.34 168 0 168 C0 112.56 0 57.12 0 0 Z " fill="#090909" transform="translate(214,59)"/>
<path d="M0 0 C0.33 0 0.66 0 1 0 C1.03048246 15.52082455 1.05093378 31.04164966 1.0625 46.5625 C1.06335602 47.70314407 1.06421204 48.84378815 1.06509399 50.01899719 C1.08832001 85.02447956 0.92793007 120.00519033 0 155 C-0.33 155 -0.66 155 -1 155 C-0.99777939 153.90641174 -0.99555878 152.81282349 -0.99327087 151.68609619 C-0.97300963 141.38604225 -0.95801344 131.08599234 -0.94818783 120.785923 C-0.9429666 115.49041158 -0.9358827 110.19491623 -0.92456055 104.89941406 C-0.91370473 99.79011629 -0.90771742 94.68083399 -0.90512276 89.57152557 C-0.90327338 87.62106838 -0.89966209 85.67061205 -0.89426994 83.72016144 C-0.88702381 80.99083111 -0.88601058 78.26156494 -0.88647461 75.53222656 C-0.88287933 74.72374268 -0.87928406 73.91525879 -0.87557983 73.08227539 C-0.88211934 69.53369619 -1.118471 66.42011294 -2 63 C-2.06404865 61.02956529 -2.0695169 59.05691033 -2.03759766 57.08569336 C-2.02072906 55.89443344 -2.00386047 54.70317352 -1.98648071 53.47581482 C-1.9625827 52.19344437 -1.93868469 50.91107391 -1.9140625 49.58984375 C-1.89282318 48.27085587 -1.87158386 46.95186798 -1.84970093 45.59291077 C-1.8042743 42.80462649 -1.75506016 40.01644191 -1.703125 37.22827148 C-1.6368348 33.65501596 -1.57957678 30.08168396 -1.52509499 26.50823116 C-1.4719508 23.09785032 -1.41146789 19.68761263 -1.3515625 16.27734375 C-1.33171295 14.99294907 -1.3118634 13.70855438 -1.29141235 12.38523865 C-1.26823944 11.19713089 -1.24506653 10.00902313 -1.22119141 8.78491211 C-1.20263092 7.73774521 -1.18407043 6.69057831 -1.16494751 5.61167908 C-1 3 -1 3 0 0 Z " fill="#585759" transform="translate(203,24)"/>
<path d="M0 0 C0 75.24 0 150.48 0 228 C-0.33 228 -0.66 228 -1 228 C-1.1665873 208.20993529 -1.32636958 188.41982066 -1.48177338 168.62966537 C-1.49992329 166.32225234 -1.51817005 164.01484008 -1.53643799 161.70742798 C-2.04752042 97.05233363 -2.04752042 97.05233363 -2.03125 66.38671875 C-2.03074142 65.37181177 -2.03023285 64.35690479 -2.02970886 63.31124306 C-2.0235593 54.04687021 -2.00641861 44.78258091 -1.97194672 35.51826954 C-1.96039862 32.2538006 -1.95226017 28.98932782 -1.94456482 25.72484779 C-1.93777208 23.5556357 -1.92523301 21.38651315 -1.91223145 19.21733093 C-1.90896851 17.94356094 -1.90570557 16.66979095 -1.90234375 15.35742188 C-1.89448853 13.71864075 -1.89448853 13.71864075 -1.88647461 12.04675293 C-1.95208988 5.93845464 -1.95208988 5.93845464 -5 1 C-3 0 -3 0 0 0 Z " fill="#0F7BDE" transform="translate(419,130)"/>
<path d="M0 0 C2.46813165 3.70219748 2.24247195 5.53178751 2.22705078 9.94995117 C2.22734283 10.65264633 2.22763489 11.35534149 2.22793579 12.07933044 C2.22654308 14.40066907 2.21098487 16.72168623 2.1953125 19.04296875 C2.19158216 20.65293706 2.18873528 22.26290764 2.18673706 23.87287903 C2.17910227 28.10946932 2.15945513 32.3459224 2.1373291 36.5824585 C2.11686735 40.90586491 2.10773464 45.2292935 2.09765625 49.55273438 C2.07620906 58.03521921 2.04207501 66.51759253 2 75 C1.34 74.67 0.68 74.34 0 74 C-0.70287467 55.66543939 -1.10675765 37.34848862 -1.125 19 C-1.12749756 18.10603516 -1.12999512 17.21207031 -1.13256836 16.29101562 C-1.1384051 13.75646992 -1.13700263 11.22204673 -1.1328125 8.6875 C-1.13479645 7.92236084 -1.1367804 7.15722168 -1.13882446 6.36889648 C-1.1153139 1.1153139 -1.1153139 1.1153139 0 0 Z " fill="#2B2B2B" transform="translate(215,18)"/>
<path d="M0 0 C5.07519051 1.81256804 9.67532258 4.45902086 14.375 7.0625 C15.69226074 7.7891687 15.69226074 7.7891687 17.03613281 8.53051758 C24.80196251 12.83977789 32.43094594 17.35535319 40 22 C38.3918457 22.70385742 38.3918457 22.70385742 36 23 C33.08666992 21.70825195 33.08666992 21.70825195 29.73046875 19.73828125 C29.131241 19.39121628 28.53201324 19.04415131 27.91462708 18.68656921 C25.99862165 17.57334118 24.09313896 16.4433637 22.1875 15.3125 C20.91667997 14.56982559 19.64520159 13.82827649 18.37304688 13.08789062 C16.01161135 11.71174219 13.6552883 10.32804347 11.30151367 8.9387207 C9.57099374 7.92252173 7.83549318 6.91262608 6.06314087 5.97128296 C1.10298543 3.3089563 1.10298543 3.3089563 0 0 Z " fill="#272728" transform="translate(251,38)"/>
<path d="M0 0 C0.33 0 0.66 0 1 0 C2.07227693 17.44364792 2.31392357 34.56704972 1 52 C0.67 52 0.34 52 0 52 C-0.9225682 34.53990617 -1.02246062 17.45486342 0 0 Z " fill="#1375D6" transform="translate(409,239)"/>
<path d="M0 0 C2.12837512 3.19256268 2.25568212 4.04272465 2.265625 7.7109375 C2.26949219 9.08378906 2.26949219 9.08378906 2.2734375 10.484375 C2.26570312 11.43828125 2.25796875 12.3921875 2.25 13.375 C2.25773438 14.32117187 2.26546875 15.26734375 2.2734375 16.2421875 C2.24938545 24.80471761 2.24938545 24.80471761 0 29 C-0.33 29 -0.66 29 -1 29 C-1.02465881 25.03069011 -1.04284023 21.06140966 -1.05493164 17.09204102 C-1.05997057 15.74079614 -1.06680177 14.38955674 -1.07543945 13.03833008 C-1.08752419 11.09979566 -1.09269828 9.161222 -1.09765625 7.22265625 C-1.10289307 6.05484619 -1.10812988 4.88703613 -1.11352539 3.68383789 C-1 1 -1 1 0 0 Z " fill="#222222" transform="translate(215,18)"/>
<path d="M0 0 C0.99 0.495 0.99 0.495 2 1 C2.7378368 9.96755491 3.15266677 18.81804273 2.6875 27.8125 C2.65277588 28.57030762 2.61805176 29.32811523 2.58227539 30.10888672 C2.33704429 34.09107988 1.82368837 36.35262326 0 40 C0 26.8 0 13.6 0 0 Z " fill="#297FD1" transform="translate(408,314)"/>
<path d="M0 0 C5.90817217 0.45211694 9.81501881 2.20461369 14.8125 5.3125 C15.47958984 5.70373047 16.14667969 6.09496094 16.83398438 6.49804688 C20.22616995 8.56211135 22.74629964 10.11441804 24 14 C18.73202405 11.99839031 14.04578982 9.26697379 9.1875 6.4375 C8.30384766 5.93025391 7.42019531 5.42300781 6.50976562 4.90039062 C5.67509766 4.41634766 4.84042969 3.93230469 3.98046875 3.43359375 C2.83421021 2.76928345 2.83421021 2.76928345 1.66479492 2.09155273 C1.1154126 1.73134033 0.56603027 1.37112793 0 1 C0 0.67 0 0.34 0 0 Z " fill="#2E2E2F" transform="translate(179,222)"/>
<path d="M0 0 C2.97 0.99 5.94 1.98 9 3 C9 3.66 9 4.32 9 5 C9.71542969 5.26554687 10.43085938 5.53109375 11.16796875 5.8046875 C14.06904319 7.02914099 16.63015864 8.47983063 19.3125 10.125 C20.19550781 10.66382812 21.07851563 11.20265625 21.98828125 11.7578125 C22.98408203 12.37269531 22.98408203 12.37269531 24 13 C21.48752061 13.93258436 20.35529829 14.13816052 17.81762695 13.15136719 C17.04894287 12.70438477 16.28025879 12.25740234 15.48828125 11.796875 C14.64845703 11.31089844 13.80863281 10.82492188 12.94335938 10.32421875 C12.07517578 9.80472656 11.20699219 9.28523438 10.3125 8.75 C9.43271484 8.24597656 8.55292969 7.74195312 7.64648438 7.22265625 C1.13172389 3.39517168 1.13172389 3.39517168 0 0 Z " fill="#2B2B2D" transform="translate(322,79)"/>
<path d="M0 0 C4.64557387 1.68515915 8.8339069 4.0183865 13.125 6.4375 C13.84042969 6.83259766 14.55585938 7.22769531 15.29296875 7.63476562 C15.98261719 8.02212891 16.67226562 8.40949219 17.3828125 8.80859375 C18.00559082 9.15720459 18.62836914 9.50581543 19.27001953 9.86499023 C21.09955812 11.06531833 22.50924931 12.40497104 24 14 C18.17233633 13.53527403 14.08252305 11.0711946 9.1875 8.125 C8.41212891 7.67769531 7.63675781 7.23039062 6.83789062 6.76953125 C1.12740254 3.38220761 1.12740254 3.38220761 0 0 Z " fill="#262627" transform="translate(222,21)"/>
<path d="M0 0 C2 2 2 2 2.22705078 4.43017578 C2.21657715 5.4251709 2.20610352 6.42016602 2.1953125 7.4453125 C2.18886719 8.52167969 2.18242187 9.59804688 2.17578125 10.70703125 C2.15902344 11.83496094 2.14226562 12.96289062 2.125 14.125 C2.11597656 15.26066406 2.10695313 16.39632813 2.09765625 17.56640625 C2.07403098 20.37781299 2.04109013 23.18880298 2 26 C1.67 26 1.34 26 1 26 C-2.15857368 7.75359667 -2.15857368 7.75359667 0 0 Z " fill="#177CDE" transform="translate(409,294)"/>
<path d="M0 0 C4.97357688 1.7342733 9.31498953 4.43327957 13.8125 7.125 C14.60076172 7.59292969 15.38902344 8.06085938 16.20117188 8.54296875 C18.13602454 9.69215397 20.06887228 10.84457003 22 12 C19.60575952 12.85601884 18.41740135 13.15804864 16.0012207 12.24316406 C15.31632568 11.83807617 14.63143066 11.43298828 13.92578125 11.015625 C13.17619141 10.57476562 12.42660156 10.13390625 11.65429688 9.6796875 C10.88150391 9.20789063 10.10871094 8.73609375 9.3125 8.25 C8.52810547 7.79367188 7.74371094 7.33734375 6.93554688 6.8671875 C1.1320394 3.39611821 1.1320394 3.39611821 0 0 Z " fill="#29292B" transform="translate(25,144)"/>
<path d="M0 0 C1.32 0 2.64 0 4 0 C4 0.66 4 1.32 4 2 C5.05767578 2.39832031 5.05767578 2.39832031 6.13671875 2.8046875 C9.15567786 4.06498967 11.95185076 5.53957994 14.8125 7.125 C16.27623047 7.93324219 16.27623047 7.93324219 17.76953125 8.7578125 C18.50558594 9.16773438 19.24164063 9.57765625 20 10 C20 10.33 20 10.66 20 11 C14.76371938 11.71172746 11.45329272 9.28652809 7.1875 6.625 C6.49462891 6.2125 5.80175781 5.8 5.08789062 5.375 C3.3511055 4.31410662 1.66973938 3.16356681 0 2 C0 1.34 0 0.68 0 0 Z " fill="#28282A" transform="translate(182,473)"/>
<path d="M0 0 C4.30760334 1.58657909 8.26347535 3.68370754 12.25 5.9375 C12.88679688 6.28490234 13.52359375 6.63230469 14.1796875 6.99023438 C18.88222204 9.64666612 18.88222204 9.64666612 20 13 C15.69239666 11.41342091 11.73652465 9.31629246 7.75 7.0625 C7.11320313 6.71509766 6.47640625 6.36769531 5.8203125 6.00976562 C1.11777796 3.35333388 1.11777796 3.35333388 0 0 Z " fill="#2A2B2C" transform="translate(245,272)"/>
<path d="M0 0 C4.26318388 7.79553624 2.93845039 16.46732028 2 25 C1.67 25 1.34 25 1 25 C0.17463655 19.28094617 -0.12753701 13.7732851 -0.0625 8 C-0.05798828 7.22527344 -0.05347656 6.45054688 -0.04882812 5.65234375 C-0.03719758 3.76819476 -0.01926906 1.88408635 0 0 Z " fill="#161616" transform="translate(214,98)"/>
<path d="M0 0 C4.39383706 1.59623144 8.28995807 3.78024333 12.3125 6.125 C12.95767578 6.49753906 13.60285156 6.87007813 14.26757812 7.25390625 C15.84675945 8.16632213 17.42361864 9.08275509 19 10 C17.44921875 10.734375 17.44921875 10.734375 15 11 C12.45364339 9.84759175 10.19506353 8.67417308 7.8125 7.25 C6.85053711 6.70859375 6.85053711 6.70859375 5.86914062 6.15625 C1.13158721 3.39476163 1.13158721 3.39476163 0 0 Z " fill="#242426" transform="translate(370,107)"/>
<path d="M0 0 C4.87147926 -0.58714628 7.89483408 1.41442784 11.8125 4 C12.7087207 4.57234375 12.7087207 4.57234375 13.62304688 5.15625 C15.0884978 6.09413859 16.5451635 7.0457295 18 8 C17.01 8.66 16.02 9.32 15 10 C12.49732313 8.52520827 9.99783579 7.04544936 7.5 5.5625 C6.78457031 5.14162109 6.06914062 4.72074219 5.33203125 4.28710938 C3.53787459 3.21915898 1.76678262 2.11265239 0 1 C0 0.67 0 0.34 0 0 Z " fill="#2A2A2B" transform="translate(148,441)"/>
<path d="M0 0 C4.39383706 1.59623144 8.28995807 3.78024333 12.3125 6.125 C12.95767578 6.49753906 13.60285156 6.87007812 14.26757812 7.25390625 C15.84675945 8.16632213 17.42361864 9.08275509 19 10 C17.44921875 10.734375 17.44921875 10.734375 15 11 C12.45364339 9.84759175 10.19506353 8.67417308 7.8125 7.25 C6.85053711 6.70859375 6.85053711 6.70859375 5.86914062 6.15625 C1.13158721 3.39476163 1.13158721 3.39476163 0 0 Z " fill="#252526" transform="translate(145,214)"/>
<path d="M0 0 C4.89190898 0.61148862 9.57553286 1.79304622 14 4 C14.33 4.66 14.66 5.32 15 6 C13.35 5.67 11.7 5.34 10 5 C10 5.99 10 6.98 10 8 C9.01 7.67 8.02 7.34 7 7 C7 6.34 7 5.68 7 5 C3.535 3.02 3.535 3.02 0 1 C0 0.67 0 0.34 0 0 Z " fill="#3B3B3D" transform="translate(131,207)"/>
<path d="M0 0 C3.69876091 1.37287342 6.9514476 3.06355453 10.3125 5.125 C11.19550781 5.66382813 12.07851563 6.20265625 12.98828125 6.7578125 C13.65214844 7.16773438 14.31601562 7.57765625 15 8 C13.32421875 8.671875 13.32421875 8.671875 11 9 C8.45703125 7.890625 8.45703125 7.890625 5.8125 6.25 C4.93207031 5.71890625 4.05164063 5.1878125 3.14453125 4.640625 C1 3 1 3 0 0 Z " fill="#262527" transform="translate(27,382)"/>
<path d="M0 0 C3.3787341 0.53752588 6.69401901 1.11840507 10 2 C10.7425 2.185625 11.485 2.37125 12.25 2.5625 C13.11625 2.7790625 13.11625 2.7790625 14 3 C13.67 3.99 13.34 4.98 13 6 C7.98043882 6 4.13538038 3.71753568 0 1 C0 0.67 0 0.34 0 0 Z " fill="#37383B" transform="translate(380,352)"/>
<path d="M0 0 C-1.26190138 3.78570414 -2.54855815 4.21831571 -5.9375 6.1875 C-6.83339844 6.71730469 -7.72929687 7.24710937 -8.65234375 7.79296875 C-11 9 -11 9 -13 9 C-11.73809862 5.21429586 -10.45144185 4.78168429 -7.0625 2.8125 C-6.16660156 2.28269531 -5.27070313 1.75289063 -4.34765625 1.20703125 C-2 0 -2 0 0 0 Z " fill="#262627" transform="translate(290,441)"/>
<path d="M0 0 C4.77923358 0.57930104 8.02129144 2.39853671 12 5 C12.33 5.99 12.66 6.98 13 8 C8.27626146 6.37621488 4.05818166 3.89006982 0 1 C0 0.67 0 0.34 0 0 Z " fill="#242426" transform="translate(241,20)"/>
<path d="M0 0 C0.99 0.33 1.98 0.66 3 1 C3 4.63 3 8.26 3 12 C2.01 12.33 1.02 12.66 0 13 C0 8.71 0 4.42 0 0 Z " fill="#151515" transform="translate(214,139)"/>
<path d="M0 0 C4.16943993 0.93599672 5.58410733 1.37616099 8 5 C5.875 5.75 5.875 5.75 3 6 C-0.3125 4.0625 -0.3125 4.0625 -3 2 C-2.01 1.34 -1.02 0.68 0 0 Z " fill="#38383A" transform="translate(354,96)"/>
<path d="M0 0 C2 2 2 2 2.1953125 5.4765625 C2.18201493 6.85950968 2.15816232 8.24238654 2.125 9.625 C2.11597656 10.33140625 2.10695313 11.0378125 2.09765625 11.765625 C2.07407603 13.51056098 2.03820461 15.25532295 2 17 C1.67 17 1.34 17 1 17 C1 15.02 1 13.04 1 11 C0.34 10.67 -0.32 10.34 -1 10 C-0.67 6.7 -0.34 3.4 0 0 Z " fill="#167EDE" transform="translate(409,228)"/>
<path d="M0 0 C-1 3 -1 3 -3.3125 4.75 C-6 6 -6 6 -8.3125 5.6875 C-8.869375 5.460625 -9.42625 5.23375 -10 5 C-4.5 0 -4.5 0 0 0 Z " fill="#272829" transform="translate(163,41)"/>
<path d="M0 0 C-2.97 1.65 -5.94 3.3 -9 5 C-9 4.34 -9 3.68 -9 3 C-9.66 2.67 -10.32 2.34 -11 2 C-10.21625 1.690625 -9.4325 1.38125 -8.625 1.0625 C-3.70909091 -0.92727273 -3.70909091 -0.92727273 0 0 Z " fill="#37383A" transform="translate(381,390)"/>
<path d="M0 0 C0.66 0.33 1.32 0.66 2 1 C2 1.99 2 2.98 2 4 C-1.83887763 5.48320272 -4.06204091 6.22419163 -8 5 C-6.71475739 4.13619741 -5.42157581 3.28419631 -4.125 2.4375 C-3.04605469 1.72400391 -3.04605469 1.72400391 -1.9453125 0.99609375 C-1.30335937 0.66738281 -0.66140625 0.33867187 0 0 Z " fill="#373739" transform="translate(69,319)"/>
<path d="M0 0 C-1.62170379 1.00533667 -3.24747237 2.00411907 -4.875 3 C-6.23238281 3.8353125 -6.23238281 3.8353125 -7.6171875 4.6875 C-10 6 -10 6 -12 6 C-12 5.34 -12 4.68 -12 4 C-10.390625 2.67578125 -10.390625 2.67578125 -8.25 1.3125 C-7.55390625 0.85488281 -6.8578125 0.39726563 -6.140625 -0.07421875 C-3.60909275 -1.16906025 -2.53899138 -0.9435441 0 0 Z " fill="#262627" transform="translate(17,115)"/>
<path d="M0 0 C-1.35513665 4.06540996 -3.30796918 4.97300269 -7 7 C-9.19921875 6.609375 -9.19921875 6.609375 -11 6 C-9.54550599 4.9944239 -8.08627557 3.99569565 -6.625 3 C-5.40683594 2.1646875 -5.40683594 2.1646875 -4.1640625 1.3125 C-2 0 -2 0 0 0 Z " fill="#282829" transform="translate(229,477)"/>
<path d="M0 0 C0.66 0.33 1.32 0.66 2 1 C-0.37417093 3.62408366 -2.84911879 5.38613402 -6 7 C-7.32 7 -8.64 7 -10 7 C-10 6.34 -10 5.68 -10 5 C-8.38007835 4.13624104 -6.75388139 3.28424146 -5.125 2.4375 C-4.22007813 1.96183594 -3.31515625 1.48617187 -2.3828125 0.99609375 C-1.20332031 0.50302734 -1.20332031 0.50302734 0 0 Z " fill="#272729" transform="translate(27,119)"/>
<path d="M0 0 C0.556875 0.226875 1.11375 0.45375 1.6875 0.6875 C-1.13803984 4.92580976 -3.43430888 4.66465348 -8.3125 5.6875 C-7.3125 2.6875 -7.3125 2.6875 -5 0.9375 C-2.3125 -0.3125 -2.3125 -0.3125 0 0 Z " fill="#242527" transform="translate(338.3125,400.3125)"/>
<path d="M0 0 C1.65 0.33 3.3 0.66 5 1 C-0.53846154 5.76923077 -0.53846154 5.76923077 -4 6 C-4.99 5.34 -5.98 4.68 -7 4 C-4.69 3.01 -2.38 2.02 0 1 C0 0.67 0 0.34 0 0 Z " fill="#36383E" transform="translate(411,368)"/>
<path d="M0 0 C4.30764815 1.56641751 8.06171464 3.68336156 12 6 C10.4375 6.75 10.4375 6.75 8 7 C5.45280141 5.97667131 3.13666413 4.72727704 1 3 C0.67 2.01 0.34 1.02 0 0 Z " fill="#26272A" transform="translate(370,345)"/>
<path d="M0 0 C-1.09987776 3.29963329 -1.45586748 3.61064772 -4.3125 5.25 C-4.90675781 5.60578125 -5.50101563 5.9615625 -6.11328125 6.328125 C-8.4491564 7.15994803 -9.69274206 6.7945524 -12 6 C-10.37829621 4.99466333 -8.75252763 3.99588093 -7.125 3 C-5.76761719 2.1646875 -5.76761719 2.1646875 -4.3828125 1.3125 C-2 0 -2 0 0 0 Z " fill="#272729" transform="translate(155,283)"/>
<path d="M0 0 C4.2638099 -0.36546942 6.58630532 0.41666348 10 3 C11.3125 5.1875 11.3125 5.1875 12 7 C7.69235185 5.43358249 3.93828536 3.31663844 0 1 C0 0.67 0 0.34 0 0 Z " fill="#212123" transform="translate(191,229)"/>
<path d="M0 0 C4.30764815 1.56641751 8.06171464 3.68336156 12 6 C10.4375 6.75 10.4375 6.75 8 7 C5.45280141 5.97667131 3.13666413 4.72727704 1 3 C0.67 2.01 0.34 1.02 0 0 Z " fill="#252627" transform="translate(102,189)"/>
<path d="M0 0 C4.30764815 1.56641751 8.06171464 3.68336156 12 6 C10.4375 6.75 10.4375 6.75 8 7 C5.45280141 5.97667131 3.13666413 4.72727704 1 3 C0.67 2.01 0.34 1.02 0 0 Z " fill="#242526" transform="translate(106,428)"/>
<path d="M0 0 C0.66 0.33 1.32 0.66 2 1 C1 4 1 4 -1.3125 5.25 C-4.16597407 6.04631835 -5.24802325 5.8214856 -8 5 C-6.71475739 4.13619741 -5.42157581 3.28419631 -4.125 2.4375 C-3.04605469 1.72400391 -3.04605469 1.72400391 -1.9453125 0.99609375 C-1.30335938 0.66738281 -0.66140625 0.33867187 0 0 Z " fill="#3A3A3C" transform="translate(329,404)"/>
<path d="M0 0 C0.66 0.33 1.32 0.66 2 1 C2.33 0.67 2.66 0.34 3 0 C5.0625 0.4375 5.0625 0.4375 7 1 C5.71475739 1.86380259 4.42157581 2.71580369 3.125 3.5625 C2.40570313 4.03816406 1.68640625 4.51382812 0.9453125 5.00390625 C0.30335938 5.33261719 -0.33859375 5.66132813 -1 6 C-1.66 5.67 -2.32 5.34 -3 5 C-2.01 3.35 -1.02 1.7 0 0 Z " fill="#414246" transform="translate(400,374)"/>
<path d="M0 0 C-1.6188996 1.03048037 -3.24532489 2.04914678 -4.875 3.0625 C-5.77992188 3.63097656 -6.68484375 4.19945312 -7.6171875 4.78515625 C-8.40351563 5.18605469 -9.18984375 5.58695312 -10 6 C-10.66 5.67 -11.32 5.34 -12 5 C-8.42937391 1.05351854 -5.33493882 -1.67637143 0 0 Z " fill="#242526" transform="translate(149,276)"/>
<path d="M0 0 C4.25191465 -0.36444983 6.58517997 0.43888497 10 3 C10.33 3.99 10.66 4.98 11 6 C6.49197399 4.74194623 3.5087188 3.09592835 0 0 Z " fill="#242425" transform="translate(165,451)"/>
<path d="M0 0 C3.40312738 1.05875074 6.01353231 2.00902154 9 4 C9 4.66 9 5.32 9 6 C5.08788267 4.84414715 2.1254959 3.64465038 -1 1 C-0.67 0.67 -0.34 0.34 0 0 Z " fill="#262728" transform="translate(138,197)"/>
<path d="M0 0 C0.66 0.33 1.32 0.66 2 1 C0.9375 2.9375 0.9375 2.9375 -1 5 C-4.6875 5.75 -4.6875 5.75 -8 6 C-5.63404067 3.38499232 -3.13950774 1.61000397 0 0 Z " fill="#383A3D" transform="translate(397,127)"/>
<path d="M0 0 C0.556875 0.226875 1.11375 0.45375 1.6875 0.6875 C1.6875 1.3475 1.6875 2.0075 1.6875 2.6875 C0.511875 2.8421875 0.511875 2.8421875 -0.6875 3 C-3.64295181 3.46345022 -3.64295181 3.46345022 -5.3125 6.6875 C-5.9725 6.3575 -6.6325 6.0275 -7.3125 5.6875 C-7.3125 4.6975 -7.3125 3.7075 -7.3125 2.6875 C-3.28618421 -0.44407895 -3.28618421 -0.44407895 0 0 Z " fill="#373739" transform="translate(94.3125,68.3125)"/>
<path d="M0 0 C-1.28524261 0.86380259 -2.57842419 1.71580369 -3.875 2.5625 C-4.59429687 3.03816406 -5.31359375 3.51382812 -6.0546875 4.00390625 C-6.69664062 4.33261719 -7.33859375 4.66132813 -8 5 C-8.66 4.67 -9.32 4.34 -10 4 C-4.75 -1.425 -4.75 -1.425 0 0 Z " fill="#252626" transform="translate(240,460)"/>
<path d="M0 0 C-1.28524261 0.86380259 -2.57842419 1.71580369 -3.875 2.5625 C-4.59429687 3.03816406 -5.31359375 3.51382812 -6.0546875 4.00390625 C-6.69664062 4.33261719 -7.33859375 4.66132813 -8 5 C-8.66 4.67 -9.32 4.34 -10 4 C-4.75 -1.425 -4.75 -1.425 0 0 Z " fill="#272728" transform="translate(255,451)"/>
<path d="M0 0 C-1.28524261 0.86380259 -2.57842419 1.71580369 -3.875 2.5625 C-4.59429687 3.03816406 -5.31359375 3.51382812 -6.0546875 4.00390625 C-6.69664062 4.33261719 -7.33859375 4.66132813 -8 5 C-8.66 4.67 -9.32 4.34 -10 4 C-7.06485676 -0.40271486 -5.03472644 -1.47460607 0 0 Z " fill="#272728" transform="translate(272,441)"/>
<path d="M0 0 C0.66 0.33 1.32 0.66 2 1 C1.01 2.485 1.01 2.485 0 4 C-0.66 4 -1.32 4 -2 4 C-2.66 5.32 -3.32 6.64 -4 8 C-4.99 7.67 -5.98 7.34 -7 7 C-6.34 6.67 -5.68 6.34 -5 6 C-5 5.01 -5 4.02 -5 3 C-2.625 1.25 -2.625 1.25 0 0 Z " fill="#363739" transform="translate(290,427)"/>
<path d="M0 0 C-1 3 -1 3 -3.8125 4.75 C-7.13982105 6.05483179 -7.79584277 6.02866653 -11 5 C-9.54462432 4.16151196 -8.08559627 3.32936066 -6.625 2.5 C-5.81289063 2.0359375 -5.00078125 1.571875 -4.1640625 1.09375 C-2 0 -2 0 0 0 Z " fill="#242526" transform="translate(29,357)"/>
<path d="M0 0 C4.7517398 0.43197635 6.92000054 1.32769295 10 5 C6.55881664 5 4.17242648 4.31035007 1 3 C0.67 2.01 0.34 1.02 0 0 Z " fill="#3A3B3D" transform="translate(325,320)"/>
<path d="M0 0 C0.66 0.33 1.32 0.66 2 1 C0.515 3.475 0.515 3.475 -1 6 C-2.65 5.67 -4.3 5.34 -6 5 C-4.06745228 2.9754262 -2.36841312 1.57894208 0 0 Z " fill="#3A3B3C" transform="translate(103,299)"/>
<path d="M0 0 C-1.98 1.32 -3.96 2.64 -6 4 C-7.32 3.34 -8.64 2.68 -10 2 C-6.80505194 -1.19494806 -4.22040044 -1.35655728 0 0 Z " fill="#3A3A3C" transform="translate(178,272)"/>
<path d="M0 0 C0.66 0.33 1.32 0.66 2 1 C0.515 3.475 0.515 3.475 -1 6 C-2.65 5.67 -4.3 5.34 -6 5 C-4.06745228 2.9754262 -2.36841312 1.57894208 0 0 Z " fill="#373839" transform="translate(256,210)"/>
<path d="M0 0 C4.7517398 0.43197635 6.92000054 1.32769295 10 5 C9.01 5.495 9.01 5.495 8 6 C6.0546875 5.0390625 6.0546875 5.0390625 3.875 3.625 C3.15054688 3.16351563 2.42609375 2.70203125 1.6796875 2.2265625 C1.12539062 1.82179687 0.57109375 1.41703125 0 1 C0 0.67 0 0.34 0 0 Z " fill="#242526" transform="translate(126,191)"/>
<path d="M0 0 C1.32 0.66 2.64 1.32 4 2 C3.67 2.66 3.34 3.32 3 4 C0.93359375 4.4140625 0.93359375 4.4140625 -1.5625 4.625 C-2.38878906 4.69976562 -3.21507812 4.77453125 -4.06640625 4.8515625 C-5.02353516 4.92503906 -5.02353516 4.92503906 -6 5 C-4.06745228 2.9754262 -2.36841312 1.57894208 0 0 Z " fill="#38393C" transform="translate(302,183)"/>
<path d="M0 0 C4.7517398 0.43197635 6.92000054 1.32769295 10 5 C9.01 5.495 9.01 5.495 8 6 C6.0546875 5.0390625 6.0546875 5.0390625 3.875 3.625 C3.15054688 3.16351563 2.42609375 2.70203125 1.6796875 2.2265625 C1.12539062 1.82179687 0.57109375 1.41703125 0 1 C0 0.67 0 0.34 0 0 Z " fill="#272728" transform="translate(114,184)"/>
<path d="M0 0 C3.73487777 0.4979837 5.81237635 0.87491756 9 3 C8.67 3.99 8.34 4.98 8 6 C6.66402348 5.19185349 5.331275 4.37836819 4 3.5625 C3.2575 3.11003906 2.515 2.65757812 1.75 2.19140625 C1.1725 1.79824219 0.595 1.40507812 0 1 C0 0.67 0 0.34 0 0 Z " fill="#242425" transform="translate(40,141)"/>
<path d="M0 0 C-1.28524261 0.86380259 -2.57842419 1.71580369 -3.875 2.5625 C-4.59429688 3.03816406 -5.31359375 3.51382813 -6.0546875 4.00390625 C-6.69664063 4.33261719 -7.33859375 4.66132812 -8 5 C-8.66 4.67 -9.32 4.34 -10 4 C-4.75 -1.425 -4.75 -1.425 0 0 Z " fill="#252526" transform="translate(29,108)"/>
<path d="M0 0 C-1.28524261 0.86380259 -2.57842419 1.71580369 -3.875 2.5625 C-4.59429687 3.03816406 -5.31359375 3.51382813 -6.0546875 4.00390625 C-6.69664063 4.33261719 -7.33859375 4.66132812 -8 5 C-8.66 4.67 -9.32 4.34 -10 4 C-4.75 -1.425 -4.75 -1.425 0 0 Z " fill="#262729" transform="translate(77,80)"/>
<path d="M0 0 C3.59391114 1.33488128 6.75490696 2.96022723 10 5 C8.3125 5.6875 8.3125 5.6875 6 6 C3.3125 4.75 3.3125 4.75 1 3 C0.67 2.01 0.34 1.02 0 0 Z " fill="#202122" transform="translate(169,465)"/>
<path d="M0 0 C3.59391114 1.33488128 6.75490696 2.96022723 10 5 C8.3125 5.6875 8.3125 5.6875 6 6 C3.3125 4.75 3.3125 4.75 1 3 C0.67 2.01 0.34 1.02 0 0 Z " fill="#252627" transform="translate(145,451)"/>
<path d="M0 0 C-1 3 -1 3 -3.3125 4.75 C-6.32190521 6.14972335 -6.98041673 5.95287489 -10 5 C-8.71186658 4.16121545 -7.41936744 3.32913217 -6.125 2.5 C-5.40570313 2.0359375 -4.68640625 1.571875 -3.9453125 1.09375 C-2 0 -2 0 0 0 Z " fill="#242426" transform="translate(314,427)"/>
<path d="M0 0 C4.7517398 0.43197635 6.92000054 1.32769295 10 5 C5.75354935 5 3.61475228 3.18249194 0 1 C0 0.67 0 0.34 0 0 Z " fill="#383839" transform="translate(83,416)"/>
<path d="M0 0 C3.37462715 0.54723683 5.08235 1.0549 8 3 C7.67 3.99 7.34 4.98 7 6 C3.535 4.02 3.535 4.02 0 2 C0 1.34 0 0.68 0 0 Z " fill="#29292B" transform="translate(26,369)"/>
<path d="M0 0 C3.59391114 1.33488128 6.75490696 2.96022723 10 5 C8.3125 5.6875 8.3125 5.6875 6 6 C3.3125 4.75 3.3125 4.75 1 3 C0.67 2.01 0.34 1.02 0 0 Z " fill="#242528" transform="translate(389,356)"/>
<path d="M0 0 C2.91517292 1.07401108 4.77810176 1.77810176 7 4 C6.67 4.66 6.34 5.32 6 6 C4.02 5.34 2.04 4.68 0 4 C0 2.68 0 1.36 0 0 Z " fill="#383D43" transform="translate(386,341)"/>
<path d="M0 0 C3.59391114 1.33488128 6.75490696 2.96022723 10 5 C8.3125 5.6875 8.3125 5.6875 6 6 C3.3125 4.75 3.3125 4.75 1 3 C0.67 2.01 0.34 1.02 0 0 Z " fill="#252528" transform="translate(305,307)"/>
<path d="M0 0 C3.59391114 1.33488128 6.75490696 2.96022723 10 5 C8.3125 5.6875 8.3125 5.6875 6 6 C3.3125 4.75 3.3125 4.75 1 3 C0.67 2.01 0.34 1.02 0 0 Z " fill="#252527" transform="translate(269,286)"/>
<path d="M0 0 C2.91517292 1.07401108 4.77810176 1.77810176 7 4 C5.02 4.99 5.02 4.99 3 6 C1.68 4.68 0.36 3.36 -1 2 C-0.67 1.34 -0.34 0.68 0 0 Z " fill="#3A3B3E" transform="translate(276,277)"/>
<path d="M0 0 C3.59391114 1.33488128 6.75490696 2.96022723 10 5 C8.3125 5.6875 8.3125 5.6875 6 6 C3.3125 4.75 3.3125 4.75 1 3 C0.67 2.01 0.34 1.02 0 0 Z " fill="#28292A" transform="translate(188,239)"/>
<path d="M0 0 C3.59391114 1.33488128 6.75490696 2.96022723 10 5 C8.3125 5.6875 8.3125 5.6875 6 6 C3.3125 4.75 3.3125 4.75 1 3 C0.67 2.01 0.34 1.02 0 0 Z " fill="#272728" transform="translate(174,231)"/>
<path d="M0 0 C3.59391114 1.33488128 6.75490696 2.96022723 10 5 C8.3125 5.6875 8.3125 5.6875 6 6 C3.3125 4.75 3.3125 4.75 1 3 C0.67 2.01 0.34 1.02 0 0 Z " fill="#272729" transform="translate(123,201)"/>
<path d="M0 0 C-1.28524261 0.86380259 -2.57842419 1.71580369 -3.875 2.5625 C-4.59429687 3.03816406 -5.31359375 3.51382813 -6.0546875 4.00390625 C-6.69664062 4.33261719 -7.33859375 4.66132813 -8 5 C-8.66 4.67 -9.32 4.34 -10 4 C-4.75 -1.425 -4.75 -1.425 0 0 Z " fill="#27292A" transform="translate(313,180)"/>
<path d="M0 0 C3.59391114 1.33488128 6.75490696 2.96022723 10 5 C8.3125 5.6875 8.3125 5.6875 6 6 C3.3125 4.75 3.3125 4.75 1 3 C0.67 2.01 0.34 1.02 0 0 Z " fill="#232324" transform="translate(66,168)"/>
<path d="M0 0 C3.73487777 0.4979837 5.81237635 0.87491756 9 3 C8.67 3.99 8.34 4.98 8 6 C6.66402348 5.19185349 5.331275 4.37836819 4 3.5625 C3.2575 3.11003906 2.515 2.65757812 1.75 2.19140625 C1.1725 1.79824219 0.595 1.40507812 0 1 C0 0.67 0 0.34 0 0 Z " fill="#272729" transform="translate(57,151)"/>
<path d="M0 0 C2 1 2 1 3 3 C1.02 4.32 -0.96 5.64 -3 7 C-3.66 6.67 -4.32 6.34 -5 6 C-2.25 1.125 -2.25 1.125 0 0 Z " fill="#3B3F44" transform="translate(380,149)"/>
<path d="M0 0 C3.59391114 1.33488128 6.75490696 2.96022723 10 5 C8.3125 5.6875 8.3125 5.6875 6 6 C3.3125 4.75 3.3125 4.75 1 3 C0.67 2.01 0.34 1.02 0 0 Z " fill="#232425" transform="translate(25,144)"/>
<path d="M0 0 C3.59391114 1.33488128 6.75490696 2.96022723 10 5 C8.3125 5.6875 8.3125 5.6875 6 6 C3.3125 4.75 3.3125 4.75 1 3 C0.67 2.01 0.34 1.02 0 0 Z " fill="#252526" transform="translate(358,100)"/>
<path d="M0 0 C3.59391114 1.33488128 6.75490696 2.96022723 10 5 C8.3125 5.6875 8.3125 5.6875 6 6 C3.3125 4.75 3.3125 4.75 1 3 C0.67 2.01 0.34 1.02 0 0 Z " fill="#202122" transform="translate(336,87)"/>
<path d="M0 0 C4.7517398 0.43197635 6.92000054 1.32769295 10 5 C5.75354935 5 3.61475228 3.18249194 0 1 C0 0.67 0 0.34 0 0 Z " fill="#38383A" transform="translate(313,75)"/>
<path d="M0 0 C0.8971875 0.309375 0.8971875 0.309375 1.8125 0.625 C0.52725739 1.48880259 -0.76592419 2.34080369 -2.0625 3.1875 C-2.78179687 3.66316406 -3.50109375 4.13882812 -4.2421875 4.62890625 C-4.88414062 4.95761719 -5.52609375 5.28632813 -6.1875 5.625 C-6.8475 5.295 -7.5075 4.965 -8.1875 4.625 C-3.2421875 -0.55580357 -3.2421875 -0.55580357 0 0 Z " fill="#212122" transform="translate(316.1875,413.375)"/>
<path d="M0 0 C3.59391114 1.33488128 6.75490696 2.96022723 10 5 C8.3125 5.6875 8.3125 5.6875 6 6 C3.3125 4.75 3.3125 4.75 1 3 C0.67 2.01 0.34 1.02 0 0 Z " fill="#262628" transform="translate(75,410)"/>
<path d="M0 0 C3.59391114 1.33488128 6.75490696 2.96022723 10 5 C8.3125 5.6875 8.3125 5.6875 6 6 C3.3125 4.75 3.3125 4.75 1 3 C0.67 2.01 0.34 1.02 0 0 Z " fill="#232324" transform="translate(10,372)"/>
<path d="M0 0 C2.97 1.65 5.94 3.3 9 5 C5 6 5 6 2.25 4.75 C1.5075 4.1725 0.765 3.595 0 3 C0 2.01 0 1.02 0 0 Z " fill="#262728" transform="translate(318,314)"/>
<path d="M0 0 C5.53846154 0.61538462 5.53846154 0.61538462 7.875 2.5625 C8.431875 3.2740625 8.431875 3.2740625 9 4 C8.01 4.495 8.01 4.495 7 5 C4.5249829 3.88568235 2.32116581 2.41849022 0 1 C0 0.67 0 0.34 0 0 Z " fill="#232325" transform="translate(256,267)"/>
<path d="M0 0 C0.8971875 0.309375 0.8971875 0.309375 1.8125 0.625 C0.52725739 1.48880259 -0.76592419 2.34080369 -2.0625 3.1875 C-2.78179687 3.66316406 -3.50109375 4.13882813 -4.2421875 4.62890625 C-4.88414062 4.95761719 -5.52609375 5.28632813 -6.1875 5.625 C-6.8475 5.295 -7.5075 4.965 -8.1875 4.625 C-3.2421875 -0.55580357 -3.2421875 -0.55580357 0 0 Z " fill="#1F2021" transform="translate(272.1875,202.375)"/>
<path d="M0 0 C0.66 0.33 1.32 0.66 2 1 C0.06745228 3.0245738 -1.63158688 4.42105792 -4 6 C-6.1875 5.625 -6.1875 5.625 -8 5 C-6.71475739 4.13619741 -5.42157581 3.28419631 -4.125 2.4375 C-3.04605469 1.72400391 -3.04605469 1.72400391 -1.9453125 0.99609375 C-1.30335938 0.66738281 -0.66140625 0.33867187 0 0 Z " fill="#36383A" transform="translate(375,140)"/>
<path d="M0 0 C0.33 0.99 0.66 1.98 1 3 C-1.25 4.5625 -1.25 4.5625 -4 6 C-5.32 5.67 -6.64 5.34 -8 5 C-4.04 2.525 -4.04 2.525 0 0 Z " fill="#232425" transform="translate(244,467)"/>
<path d="M0 0 C3.73487777 0.4979837 5.81237635 0.87491756 9 3 C9 3.66 9 4.32 9 5 C5.22454612 3.90931332 2.52956528 3.0916909 0 0 Z " fill="#212121" transform="translate(90,407)"/>
<path d="M0 0 C-1 3 -1 3 -2.8125 4.25 C-5.33943414 5.11637742 -6.52221994 4.88492145 -9 4 C-2.25 0 -2.25 0 0 0 Z " fill="#262728" transform="translate(130,298)"/>
<path d="M0 0 C0.33 0.99 0.66 1.98 1 3 C-1.25 4.5625 -1.25 4.5625 -4 6 C-5.32 5.67 -6.64 5.34 -8 5 C-4.04 2.525 -4.04 2.525 0 0 Z " fill="#212223" transform="translate(268,216)"/>
<path d="M0 0 C-5.14285714 4.42857143 -5.14285714 4.42857143 -9 5 C-7.35234966 0.05704899 -4.76872479 -0.25776891 0 0 Z " fill="#202022" transform="translate(173,24)"/>
<path d="M0 0 C1.98 0 3.96 0 6 0 C3.47211993 2.79872437 1.79588866 4.45773019 -2 5 C-1.34 3.35 -0.68 1.7 0 0 Z " fill="#292A2B" transform="translate(178,17)"/>
<path d="M0 0 C2.25 -0.25 2.25 -0.25 5 0 C7.3125 2 7.3125 2 9 4 C8.01 4.495 8.01 4.495 7 5 C4.5249829 3.88568235 2.32116581 2.41849022 0 1 C0 0.67 0 0.34 0 0 Z " fill="#222223" transform="translate(219,8)"/>
<path d="M0 0 C2.25 0.25 2.25 0.25 4 1 C2.02 2.32 0.04 3.64 -2 5 C-2.66 4.67 -3.32 4.34 -4 4 C-2.25 1.9375 -2.25 1.9375 0 0 Z " fill="#272829" transform="translate(302,420)"/>
<path d="M0 0 C0 0.66 0 1.32 0 2 C-4.15267176 5.11450382 -4.15267176 5.11450382 -7.3125 4.6875 C-7.869375 4.460625 -8.42625 4.23375 -9 4 C-2.25 0 -2.25 0 0 0 Z " fill="#262627" transform="translate(77,329)"/>
<path d="M0 0 C-0.33 0.99 -0.66 1.98 -1 3 C-3.31 3.33 -5.62 3.66 -8 4 C-8 3.34 -8 2.68 -8 2 C-2.25 0 -2.25 0 0 0 Z " fill="#2B2B2C" transform="translate(92,320)"/>
<path d="M0 0 C0.66 0.33 1.32 0.66 2 1 C0.25 3.0625 0.25 3.0625 -2 5 C-4.25 4.75 -4.25 4.75 -6 4 C-4.02 2.68 -2.04 1.36 0 0 Z " fill="#393A3C" transform="translate(246,216)"/>
<path d="M0 0 C2.25 0.25 2.25 0.25 4 1 C2.02 2.32 0.04 3.64 -2 5 C-2.66 4.67 -3.32 4.34 -4 4 C-2.25 1.9375 -2.25 1.9375 0 0 Z " fill="#262728" transform="translate(365,146)"/>
<path d="M0 0 C3.45925163 1.2491742 6.14693203 2.67527795 9 5 C6.75 5.25 6.75 5.25 4 5 C1.6875 3.0625 1.6875 3.0625 0 1 C0 0.67 0 0.34 0 0 Z " fill="#212224" transform="translate(193,479)"/>
<path d="M0 0 C-1.65 0.66 -3.3 1.32 -5 2 C-5 2.66 -5 3.32 -5 4 C-5.66 4 -6.32 4 -7 4 C-6.625 2.0625 -6.625 2.0625 -6 0 C-3.50907189 -1.24546405 -2.58919267 -0.7767578 0 0 Z " fill="#272728" transform="translate(228,467)"/>
<path d="M0 0 C2.875 0.25 2.875 0.25 6 1 C7.375 3.0625 7.375 3.0625 8 5 C4.62496331 3.8141763 2.35277269 2.72426311 0 0 Z " fill="#38383A" transform="translate(162,462)"/>
<path d="M0 0 C2.875 0.25 2.875 0.25 6 1 C7.375 3.0625 7.375 3.0625 8 5 C4.62496331 3.8141763 2.35277269 2.72426311 0 0 Z " fill="#3C3B3D" transform="translate(138,448)"/>
<path d="M0 0 C-0.33 0.99 -0.66 1.98 -1 3 C-4.0625 4.1875 -4.0625 4.1875 -7 5 C-5.64703851 0.94111554 -4.27479763 0 0 0 Z " fill="#2A2A2B" transform="translate(286,431)"/>
<path d="M0 0 C-1.175625 0.680625 -1.175625 0.680625 -2.375 1.375 C-5.03698031 2.88428742 -5.03698031 2.88428742 -7 5 C-6.625 2.5625 -6.625 2.5625 -6 0 C-3.50907189 -1.24546405 -2.58919267 -0.7767578 0 0 Z " fill="#28292B" transform="translate(371,383)"/>
<path d="M0 0 C0.556875 0.226875 1.11375 0.45375 1.6875 0.6875 C-5.0625 4.6875 -5.0625 4.6875 -7.3125 4.6875 C-7.3125 4.0275 -7.3125 3.3675 -7.3125 2.6875 C-3.15982824 -0.42700382 -3.15982824 -0.42700382 0 0 Z " fill="#1D1D1F" transform="translate(17.3125,351.3125)"/>
<path d="M0 0 C3.37503669 1.1858237 5.64722731 2.27573689 8 5 C4.86248779 5 3.60242414 4.64820195 1 3 C0.67 2.01 0.34 1.02 0 0 Z " fill="#2A2B2C" transform="translate(334,324)"/>
<path d="M0 0 C2.25 0.25 2.25 0.25 4 1 C2.02 2.32 0.04 3.64 -2 5 C-2.66 4.67 -3.32 4.34 -4 4 C-2.25 1.9375 -2.25 1.9375 0 0 Z " fill="#242527" transform="translate(292,189)"/>
<path d="M0 0 C0.66 0.33 1.32 0.66 2 1 C0.25 3.0625 0.25 3.0625 -2 5 C-4.25 4.75 -4.25 4.75 -6 4 C-4.02 2.68 -2.04 1.36 0 0 Z " fill="#373839" transform="translate(40,98)"/>
<path d="M0 0 C3.68754757 0.49831724 5.60490662 1.10067643 8 4 C7.01 4.495 7.01 4.495 6 5 C3.98079663 3.69593116 1.98075027 2.36176581 0 1 C0 0.67 0 0.34 0 0 Z " fill="#1C1D1E" transform="translate(310,60)"/>
<path d="M0 0 C-1.175625 0.680625 -1.175625 0.680625 -2.375 1.375 C-5.03698031 2.88428742 -5.03698031 2.88428742 -7 5 C-6.625 2.5625 -6.625 2.5625 -6 0 C-3.50907189 -1.24546405 -2.58919267 -0.7767578 0 0 Z " fill="#2A2A2B" transform="translate(110,61)"/>
<path d="M0 0 C0.99 0.66 1.98 1.32 3 2 C1.35 2 -0.3 2 -2 2 C-1.34 1.34 -0.68 0.68 0 0 Z " fill="#626163" transform="translate(100,191)"/>
<path d="M0 0 C0.66 1.32 1.32 2.64 2 4 C1.34 4 0.68 4 0 4 C0 2.68 0 1.36 0 0 Z " fill="#63666B" transform="translate(394,124)"/>
<path d="M0 0 C1 4 1 4 1 4 Z " fill="#559DDC" transform="translate(406,297)"/>
<path d="M0 0 C0.66 0.66 1.32 1.32 2 2 C1.34 2 0.68 2 0 2 C0 1.34 0 0.68 0 0 Z " fill="#636162" transform="translate(266,438)"/>
<path d="M0 0 C0.66 0.66 1.32 1.32 2 2 C1.34 2 0.68 2 0 2 C0 1.34 0 0.68 0 0 Z " fill="#626162" transform="translate(93,424)"/>
<path d="M0 0 C3 1 3 1 3 1 Z " fill="#5F5D60" transform="translate(252,280)"/>
<path d="M0 0 C0.66 0.66 1.32 1.32 2 2 C1.34 2 0.68 2 0 2 C0 1.34 0 0.68 0 0 Z " fill="#5D5C5D" transform="translate(235,269)"/>
<path d="M0 0 C0.99 0.495 0.99 0.495 2 1 C1.01 1.495 1.01 1.495 0 2 C0 1.34 0 0.68 0 0 Z " fill="#549EDD" transform="translate(406,265)"/>
<path d="M0 0 C3 1 3 1 3 1 Z " fill="#5C5C5D" transform="translate(218,227)"/>
<path d="M0 0 C0.33 0.66 0.66 1.32 1 2 C0.34 1.67 -0.32 1.34 -1 1 C-0.67 0.67 -0.34 0.34 0 0 Z " fill="#626366" transform="translate(264,203)"/>
<path d="M0 0 C0.99 0.495 0.99 0.495 2 1 C1.01 1.495 1.01 1.495 0 2 C0 1.34 0 0.68 0 0 Z " fill="#666669" transform="translate(354,149)"/>
<path d="M0 0 C0.99 0.495 0.99 0.495 2 1 C1.01 1.495 1.01 1.495 0 2 C0 1.34 0 0.68 0 0 Z " fill="#62686E" transform="translate(396,125)"/>
<path d="M0 0 C0.66 0.66 1.32 1.32 2 2 C1.34 2 0.68 2 0 2 C0 1.34 0 0.68 0 0 Z " fill="#606163" transform="translate(355,101)"/>
<path d="" fill="#626262" transform="translate(0,0)"/>
<path d="M0 0 C3 1 3 1 3 1 Z " fill="#5E5D5F" transform="translate(258,46)"/>
<path d="M0 0 C0.99 0.495 0.99 0.495 2 1 C1.01 1.495 1.01 1.495 0 2 C0 1.34 0 0.68 0 0 Z " fill="#616163" transform="translate(155,27)"/>
<path d="M0 0 C3 1 3 1 3 1 Z " fill="#5B595C" transform="translate(220,24)"/>
<path d="M0 0 C2 1 2 1 2 1 Z " fill="#616061" transform="translate(188,480)"/>
<path d="" fill="#5C5A5D" transform="translate(0,0)"/>
<path d="" fill="#616162" transform="translate(0,0)"/>
<path d="M0 0 C2 1 2 1 2 1 Z " fill="#646264" transform="translate(273,435)"/>
<path d="M0 0 C2 1 2 1 2 1 Z " fill="#5B5C5C" transform="translate(144,435)"/>
<path d="M0 0 C2 1 2 1 2 1 Z " fill="#646364" transform="translate(102,429)"/>
<path d="" fill="#646568" transform="translate(0,0)"/>
<path d="M0 0 C2 1 2 1 2 1 Z " fill="#616162" transform="translate(327,403)"/>
<path d="M0 0 C2 1 2 1 2 1 Z " fill="#646363" transform="translate(96,403)"/>
<path d="M0 0 C2 1 2 1 2 1 Z " fill="#615F62" transform="translate(52,400)"/>
<path d="M0 0 C2 1 2 1 2 1 Z " fill="#626163" transform="translate(34,390)"/>
<path d="" fill="#676769" transform="translate(0,0)"/>
<path d="M0 0 C2 1 2 1 2 1 Z " fill="#646569" transform="translate(347,335)"/>
<path d="M0 0 C2 1 2 1 2 1 Z " fill="#616163" transform="translate(59,323)"/>
<path d="M0 0 C2 1 2 1 2 1 Z " fill="#636163" transform="translate(111,314)"/>
<path d="" fill="#656366" transform="translate(0,0)"/>
<path d="" fill="#559FDE" transform="translate(0,0)"/>
<path d="" fill="#55A0DF" transform="translate(0,0)"/>
<path d="M0 0 C2 1 2 1 2 1 Z " fill="#636166" transform="translate(162,261)"/>
<path d="M0 0 C2 1 2 1 2 1 Z " fill="#5F5D60" transform="translate(156,224)"/>
<path d="M0 0 C2 1 2 1 2 1 Z " fill="#5C5B5E" transform="translate(184,221)"/>
<path d="M0 0 C2 1 2 1 2 1 Z " fill="#5F5E5E" transform="translate(182,220)"/>
<path d="" fill="#559EDB" transform="translate(0,0)"/>
<path d="M0 0 C2 1 2 1 2 1 Z " fill="#64676D" transform="translate(277,217)"/>
<path d="M0 0 C2 1 2 1 2 1 Z " fill="#65686E" transform="translate(301,201)"/>
<path d="M0 0 C2 1 2 1 2 1 Z " fill="#656870" transform="translate(315,192)"/>
<path d="M0 0 C2 1 2 1 2 1 Z " fill="#616263" transform="translate(98,190)"/>
<path d="M0 0 C2 1 2 1 2 1 Z " fill="#615E61" transform="translate(60,168)"/>
<path d="" fill="#666769" transform="translate(0,0)"/>
<path d="" fill="#5B595C" transform="translate(0,0)"/>
<path d="" fill="#626569" transform="translate(0,0)"/>
<path d="" fill="#5F5D60" transform="translate(0,0)"/>
<path d="" fill="#737884" transform="translate(0,0)"/>
<path d="M0 0 C2 1 2 1 2 1 Z " fill="#636266" transform="translate(371,111)"/>
<path d="M0 0 C2 1 2 1 2 1 Z " fill="#676768" transform="translate(49,91)"/>
<path d="M0 0 C2 1 2 1 2 1 Z " fill="#616263" transform="translate(43,91)"/>
<path d="M0 0 C2 1 2 1 2 1 Z " fill="#5D5D5F" transform="translate(100,80)"/>
<path d="M0 0 C2 1 2 1 2 1 Z " fill="#646563" transform="translate(98,61)"/>
<path d="M0 0 C2 1 2 1 2 1 Z " fill="#615E62" transform="translate(276,56)"/>
<path d="M0 0 C2 1 2 1 2 1 Z " fill="#5D5D5D" transform="translate(272,35)"/>
<path d="M0 0 C2 1 2 1 2 1 Z " fill="#5F6061" transform="translate(187,11)"/>
<path d="" fill="#636162" transform="translate(0,0)"/>
<path d="" fill="#5F5E5E" transform="translate(0,0)"/>
<path d="" fill="#5E5D5F" transform="translate(0,0)"/>
<path d="" fill="#606163" transform="translate(0,0)"/>
<path d="" fill="#646363" transform="translate(0,0)"/>
<path d="" fill="#5F5F61" transform="translate(0,0)"/>
<path d="" fill="#636262" transform="translate(0,0)"/>
<path d="" fill="#5C595A" transform="translate(0,0)"/>
<path d="" fill="#5D5D5C" transform="translate(0,0)"/>
<path d="" fill="#5D5E5F" transform="translate(0,0)"/>
<path d="" fill="#605F62" transform="translate(0,0)"/>
<path d="" fill="#626163" transform="translate(0,0)"/>
<path d="" fill="#626163" transform="translate(0,0)"/>
<path d="" fill="#5E5F5F" transform="translate(0,0)"/>
<path d="" fill="#636062" transform="translate(0,0)"/>
<path d="" fill="#616062" transform="translate(0,0)"/>
<path d="" fill="#626063" transform="translate(0,0)"/>
<path d="" fill="#646363" transform="translate(0,0)"/>
<path d="" fill="#626264" transform="translate(0,0)"/>
<path d="" fill="#626263" transform="translate(0,0)"/>
<path d="" fill="#605F61" transform="translate(0,0)"/>
<path d="" fill="#5F6163" transform="translate(0,0)"/>
<path d="" fill="#5F5C5F" transform="translate(0,0)"/>
<path d="" fill="#606163" transform="translate(0,0)"/>
<path d="" fill="#636263" transform="translate(0,0)"/>
<path d="" fill="#625F64" transform="translate(0,0)"/>
<path d="" fill="#616364" transform="translate(0,0)"/>
<path d="" fill="#5F5D5E" transform="translate(0,0)"/>
<path d="" fill="#636163" transform="translate(0,0)"/>
<path d="" fill="#626161" transform="translate(0,0)"/>
<path d="" fill="#646366" transform="translate(0,0)"/>
<path d="" fill="#656664" transform="translate(0,0)"/>
<path d="" fill="#666566" transform="translate(0,0)"/>
<path d="" fill="#676466" transform="translate(0,0)"/>
<path d="" fill="#636066" transform="translate(0,0)"/>
<path d="" fill="#646567" transform="translate(0,0)"/>
<path d="" fill="#646262" transform="translate(0,0)"/>
<path d="" fill="#626465" transform="translate(0,0)"/>
<path d="" fill="#605F63" transform="translate(0,0)"/>
<path d="" fill="#67686A" transform="translate(0,0)"/>
<path d="" fill="#606161" transform="translate(0,0)"/>
<path d="" fill="#615E63" transform="translate(0,0)"/>
<path d="" fill="#68696D" transform="translate(0,0)"/>
<path d="" fill="#616163" transform="translate(0,0)"/>
<path d="" fill="#696A6E" transform="translate(0,0)"/>
<path d="" fill="#65676A" transform="translate(0,0)"/>
<path d="" fill="#636365" transform="translate(0,0)"/>
<path d="" fill="#666668" transform="translate(0,0)"/>
<path d="" fill="#615F62" transform="translate(0,0)"/>
<path d="" fill="#656668" transform="translate(0,0)"/>
<path d="" fill="#616163" transform="translate(0,0)"/>
<path d="" fill="#616263" transform="translate(0,0)"/>
<path d="" fill="#646767" transform="translate(0,0)"/>
<path d="" fill="#646767" transform="translate(0,0)"/>
<path d="" fill="#646B74" transform="translate(0,0)"/>
<path d="" fill="#6A707A" transform="translate(0,0)"/>
<path d="" fill="#636160" transform="translate(0,0)"/>
<path d="" fill="#6C8094" transform="translate(0,0)"/>
<path d="" fill="#626264" transform="translate(0,0)"/>
<path d="" fill="#64646A" transform="translate(0,0)"/>
<path d="" fill="#5E5E5D" transform="translate(0,0)"/>
<path d="" fill="#626367" transform="translate(0,0)"/>
<path d="" fill="#606469" transform="translate(0,0)"/>
<path d="" fill="#5E5E5E" transform="translate(0,0)"/>
<path d="" fill="#606166" transform="translate(0,0)"/>
<path d="" fill="#6089AC" transform="translate(0,0)"/>
<path d="" fill="#618AAC" transform="translate(0,0)"/>
<path d="" fill="#5D8CB2" transform="translate(0,0)"/>
<path d="" fill="#64666A" transform="translate(0,0)"/>
<path d="" fill="#62819A" transform="translate(0,0)"/>
<path d="" fill="#5A5B5A" transform="translate(0,0)"/>
<path d="" fill="#67696D" transform="translate(0,0)"/>
<path d="" fill="#616264" transform="translate(0,0)"/>
<path d="" fill="#5E5D5C" transform="translate(0,0)"/>
<path d="" fill="#5D605D" transform="translate(0,0)"/>
<path d="" fill="#636464" transform="translate(0,0)"/>
<path d="" fill="#616468" transform="translate(0,0)"/>
<path d="" fill="#676769" transform="translate(0,0)"/>
<path d="" fill="#646366" transform="translate(0,0)"/>
<path d="" fill="#5C5A5C" transform="translate(0,0)"/>
<path d="" fill="#67686C" transform="translate(0,0)"/>
<path d="" fill="#626063" transform="translate(0,0)"/>
<path d="" fill="#67676A" transform="translate(0,0)"/>
<path d="" fill="#626063" transform="translate(0,0)"/>
<path d="" fill="#615F60" transform="translate(0,0)"/>
<path d="" fill="#5896CE" transform="translate(0,0)"/>
<path d="" fill="#616163" transform="translate(0,0)"/>
<path d="" fill="#636364" transform="translate(0,0)"/>
<path d="" fill="#5C5E5F" transform="translate(0,0)"/>
<path d="" fill="#656769" transform="translate(0,0)"/>
<path d="" fill="#636164" transform="translate(0,0)"/>
<path d="" fill="#65686A" transform="translate(0,0)"/>
<path d="" fill="#605F61" transform="translate(0,0)"/>
<path d="" fill="#559DD8" transform="translate(0,0)"/>
<path d="" fill="#646566" transform="translate(0,0)"/>
<path d="" fill="#636367" transform="translate(0,0)"/>
<path d="" fill="#656467" transform="translate(0,0)"/>
<path d="" fill="#646363" transform="translate(0,0)"/>
<path d="" fill="#606161" transform="translate(0,0)"/>
<path d="" fill="#5F6060" transform="translate(0,0)"/>
<path d="" fill="#559DDB" transform="translate(0,0)"/>
<path d="" fill="#559DDB" transform="translate(0,0)"/>
<path d="" fill="#646465" transform="translate(0,0)"/>
<path d="" fill="#5F6162" transform="translate(0,0)"/>
<path d="" fill="#626064" transform="translate(0,0)"/>
<path d="" fill="#656364" transform="translate(0,0)"/>
<path d="" fill="#676668" transform="translate(0,0)"/>
<path d="" fill="#579CD8" transform="translate(0,0)"/>
<path d="" fill="#666971" transform="translate(0,0)"/>
<path d="" fill="#606062" transform="translate(0,0)"/>
<path d="" fill="#55A0DC" transform="translate(0,0)"/>
<path d="" fill="#656367" transform="translate(0,0)"/>
<path d="" fill="#626165" transform="translate(0,0)"/>
<path d="" fill="#646666" transform="translate(0,0)"/>
<path d="" fill="#656366" transform="translate(0,0)"/>
<path d="" fill="#539FDF" transform="translate(0,0)"/>
<path d="" fill="#616165" transform="translate(0,0)"/>
<path d="" fill="#529DDD" transform="translate(0,0)"/>
<path d="" fill="#626261" transform="translate(0,0)"/>
<path d="" fill="#616364" transform="translate(0,0)"/>
<path d="" fill="#646364" transform="translate(0,0)"/>
<path d="" fill="#5E6061" transform="translate(0,0)"/>
<path d="" fill="#616062" transform="translate(0,0)"/>
<path d="" fill="#5F5C62" transform="translate(0,0)"/>
<path d="" fill="#5F5E60" transform="translate(0,0)"/>
<path d="" fill="#54A0E0" transform="translate(0,0)"/>
<path d="" fill="#5F5E60" transform="translate(0,0)"/>
<path d="" fill="#656366" transform="translate(0,0)"/>
<path d="" fill="#5F5F61" transform="translate(0,0)"/>
<path d="" fill="#5E5E60" transform="translate(0,0)"/>
<path d="" fill="#626568" transform="translate(0,0)"/>
<path d="" fill="#646565" transform="translate(0,0)"/>
<path d="" fill="#646465" transform="translate(0,0)"/>
<path d="" fill="#656669" transform="translate(0,0)"/>
<path d="" fill="#626466" transform="translate(0,0)"/>
<path d="" fill="#605E60" transform="translate(0,0)"/>
<path d="" fill="#646366" transform="translate(0,0)"/>
<path d="" fill="#666564" transform="translate(0,0)"/>
<path d="" fill="#569ADB" transform="translate(0,0)"/>
<path d="" fill="#616260" transform="translate(0,0)"/>
<path d="" fill="#5E615F" transform="translate(0,0)"/>
<path d="" fill="#569EE0" transform="translate(0,0)"/>
<path d="" fill="#666667" transform="translate(0,0)"/>
<path d="" fill="#636265" transform="translate(0,0)"/>
<path d="" fill="#5E5E61" transform="translate(0,0)"/>
<path d="" fill="#5E5C5E" transform="translate(0,0)"/>
<path d="" fill="#5E5C5E" transform="translate(0,0)"/>
<path d="" fill="#56A1DE" transform="translate(0,0)"/>
<path d="" fill="#549FDD" transform="translate(0,0)"/>
<path d="" fill="#569FDC" transform="translate(0,0)"/>
<path d="" fill="#5D5D5F" transform="translate(0,0)"/>
<path d="" fill="#5A5C5C" transform="translate(0,0)"/>
<path d="" fill="#58585A" transform="translate(0,0)"/>
<path d="" fill="#5A5D5C" transform="translate(0,0)"/>
<path d="" fill="#5D5C5D" transform="translate(0,0)"/>
<path d="" fill="#539EDE" transform="translate(0,0)"/>
<path d="" fill="#5E5E5F" transform="translate(0,0)"/>
<path d="" fill="#64676A" transform="translate(0,0)"/>
<path d="" fill="#606366" transform="translate(0,0)"/>
<path d="" fill="#5E5D61" transform="translate(0,0)"/>
<path d="" fill="#5F5F5F" transform="translate(0,0)"/>
<path d="" fill="#626266" transform="translate(0,0)"/>
<path d="" fill="#626262" transform="translate(0,0)"/>
<path d="" fill="#636264" transform="translate(0,0)"/>
<path d="" fill="#636264" transform="translate(0,0)"/>
<path d="" fill="#636263" transform="translate(0,0)"/>
<path d="" fill="#616163" transform="translate(0,0)"/>
<path d="" fill="#616365" transform="translate(0,0)"/>
<path d="" fill="#616162" transform="translate(0,0)"/>
<path d="" fill="#559EDB" transform="translate(0,0)"/>
<path d="" fill="#636368" transform="translate(0,0)"/>
<path d="" fill="#559EDB" transform="translate(0,0)"/>
<path d="" fill="#616163" transform="translate(0,0)"/>
<path d="" fill="#65666B" transform="translate(0,0)"/>
<path d="" fill="#5E5F61" transform="translate(0,0)"/>
<path d="" fill="#549DDB" transform="translate(0,0)"/>
<path d="" fill="#666866" transform="translate(0,0)"/>
<path d="" fill="#5F615E" transform="translate(0,0)"/>
<path d="" fill="#636465" transform="translate(0,0)"/>
<path d="" fill="#616264" transform="translate(0,0)"/>
<path d="" fill="#65696D" transform="translate(0,0)"/>
<path d="" fill="#626262" transform="translate(0,0)"/>
<path d="" fill="#605E61" transform="translate(0,0)"/>
<path d="" fill="#656A6F" transform="translate(0,0)"/>
<path d="" fill="#626165" transform="translate(0,0)"/>
<path d="" fill="#646363" transform="translate(0,0)"/>
<path d="" fill="#676871" transform="translate(0,0)"/>
<path d="" fill="#676C73" transform="translate(0,0)"/>
<path d="" fill="#5B99D2" transform="translate(0,0)"/>
<path d="" fill="#656A6E" transform="translate(0,0)"/>
<path d="" fill="#636366" transform="translate(0,0)"/>
<path d="" fill="#549CD8" transform="translate(0,0)"/>
<path d="" fill="#67696F" transform="translate(0,0)"/>
<path d="" fill="#646266" transform="translate(0,0)"/>
<path d="" fill="#676568" transform="translate(0,0)"/>
<path d="" fill="#616263" transform="translate(0,0)"/>
<path d="" fill="#656468" transform="translate(0,0)"/>
<path d="" fill="#646564" transform="translate(0,0)"/>
<path d="" fill="#66666A" transform="translate(0,0)"/>
<path d="" fill="#6D737C" transform="translate(0,0)"/>
<path d="" fill="#5E5B5E" transform="translate(0,0)"/>
<path d="" fill="#606161" transform="translate(0,0)"/>
<path d="" fill="#569AD6" transform="translate(0,0)"/>
<path d="" fill="#5E6061" transform="translate(0,0)"/>
<path d="" fill="#69737C" transform="translate(0,0)"/>
<path d="" fill="#697279" transform="translate(0,0)"/>
<path d="" fill="#616061" transform="translate(0,0)"/>
<path d="" fill="#5F5F64" transform="translate(0,0)"/>
<path d="" fill="#68737D" transform="translate(0,0)"/>
<path d="" fill="#5699D0" transform="translate(0,0)"/>
<path d="" fill="#616164" transform="translate(0,0)"/>
<path d="" fill="#687586" transform="translate(0,0)"/>
<path d="" fill="#605F60" transform="translate(0,0)"/>
<path d="" fill="#636768" transform="translate(0,0)"/>
<path d="" fill="#66666B" transform="translate(0,0)"/>
<path d="" fill="#666566" transform="translate(0,0)"/>
<path d="" fill="#5E5E5F" transform="translate(0,0)"/>
<path d="" fill="#5692C6" transform="translate(0,0)"/>
<path d="" fill="#616362" transform="translate(0,0)"/>
<path d="" fill="#5B5959" transform="translate(0,0)"/>
<path d="" fill="#5A5A59" transform="translate(0,0)"/>
<path d="" fill="#627D9B" transform="translate(0,0)"/>
<path d="" fill="#5E5D5D" transform="translate(0,0)"/>
<path d="" fill="#6586A7" transform="translate(0,0)"/>
<path d="" fill="#5F5E5F" transform="translate(0,0)"/>
<path d="" fill="#626667" transform="translate(0,0)"/>
<path d="" fill="#5D5C5C" transform="translate(0,0)"/>
<path d="" fill="#656669" transform="translate(0,0)"/>
<path d="" fill="#5C5A5D" transform="translate(0,0)"/>
<path d="" fill="#605F5E" transform="translate(0,0)"/>
<path d="" fill="#5F5C64" transform="translate(0,0)"/>
<path d="" fill="#646567" transform="translate(0,0)"/>
<path d="" fill="#626266" transform="translate(0,0)"/>
<path d="" fill="#6D727C" transform="translate(0,0)"/>
<path d="" fill="#5F6164" transform="translate(0,0)"/>
<path d="" fill="#626364" transform="translate(0,0)"/>
<path d="" fill="#636265" transform="translate(0,0)"/>
<path d="" fill="#606060" transform="translate(0,0)"/>
<path d="" fill="#616669" transform="translate(0,0)"/>
<path d="" fill="#616264" transform="translate(0,0)"/>
<path d="" fill="#5F6063" transform="translate(0,0)"/>
<path d="" fill="#646566" transform="translate(0,0)"/>
<path d="" fill="#646465" transform="translate(0,0)"/>
<path d="" fill="#5C5C5E" transform="translate(0,0)"/>
<path d="" fill="#5E5D5F" transform="translate(0,0)"/>
<path d="" fill="#606162" transform="translate(0,0)"/>
<path d="" fill="#656566" transform="translate(0,0)"/>
<path d="" fill="#635F5F" transform="translate(0,0)"/>
<path d="" fill="#636364" transform="translate(0,0)"/>
<path d="" fill="#656463" transform="translate(0,0)"/>
<path d="" fill="#656666" transform="translate(0,0)"/>
<path d="" fill="#646263" transform="translate(0,0)"/>
<path d="" fill="#616161" transform="translate(0,0)"/>
<path d="" fill="#606263" transform="translate(0,0)"/>
<path d="" fill="#626164" transform="translate(0,0)"/>
<path d="" fill="#616062" transform="translate(0,0)"/>
<path d="" fill="#626163" transform="translate(0,0)"/>
<path d="" fill="#5F5F5E" transform="translate(0,0)"/>
<path d="" fill="#606163" transform="translate(0,0)"/>
<path d="" fill="#626364" transform="translate(0,0)"/>
<path d="" fill="#626063" transform="translate(0,0)"/>
<path d="" fill="#605F62" transform="translate(0,0)"/>
<path d="" fill="#636163" transform="translate(0,0)"/>
<path d="" fill="#626163" transform="translate(0,0)"/>
<path d="" fill="#616062" transform="translate(0,0)"/>
<path d="" fill="#656365" transform="translate(0,0)"/>
<path d="" fill="#646362" transform="translate(0,0)"/>
<path d="" fill="#5F6162" transform="translate(0,0)"/>
<path d="" fill="#606062" transform="translate(0,0)"/>
<path d="" fill="#615F60" transform="translate(0,0)"/>
<path d="" fill="#646464" transform="translate(0,0)"/>
<path d="" fill="#5E5E5E" transform="translate(0,0)"/>
<path d="" fill="#5F5F61" transform="translate(0,0)"/>
<path d="" fill="#5F5F60" transform="translate(0,0)"/>
<path d="" fill="#5F5D60" transform="translate(0,0)"/>
<path d="" fill="#5D5B5C" transform="translate(0,0)"/>
<path d="" fill="#5E5C5D" transform="translate(0,0)"/>
<path d="" fill="#5B5A5D" transform="translate(0,0)"/>
<path d="" fill="#615F61" transform="translate(0,0)"/>
<path d="" fill="#636160" transform="translate(0,0)"/>
<path d="" fill="#5F5E60" transform="translate(0,0)"/>
<path d="" fill="#676365" transform="translate(0,0)"/>
<path d="" fill="#646264" transform="translate(0,0)"/>
<path d="" fill="#666667" transform="translate(0,0)"/>
<path d="" fill="#646465" transform="translate(0,0)"/>
<path d="" fill="#5B5B5C" transform="translate(0,0)"/>
<path d="" fill="#5E5E5E" transform="translate(0,0)"/>
<path d="" fill="#5A5A5B" transform="translate(0,0)"/>
<path d="" fill="#636162" transform="translate(0,0)"/>
<path d="" fill="#5A5A5D" transform="translate(0,0)"/>
<path d="" fill="#646466" transform="translate(0,0)"/>
<path d="" fill="#585859" transform="translate(0,0)"/>
<path d="" fill="#5F5D5F" transform="translate(0,0)"/>
<path d="" fill="#626461" transform="translate(0,0)"/>
<path d="" fill="#656464" transform="translate(0,0)"/>
<path d="" fill="#636364" transform="translate(0,0)"/>
<path d="" fill="#666867" transform="translate(0,0)"/>
<path d="" fill="#666366" transform="translate(0,0)"/>
<path d="" fill="#696767" transform="translate(0,0)"/>
<path d="" fill="#696969" transform="translate(0,0)"/>
<path d="" fill="#6A6869" transform="translate(0,0)"/>
</svg>
